<?xml version="1.0" encoding="UTF-8" standalone="no"?><!DOCTYPE svg PUBLIC "-//W3C//DTD SVG 1.1//EN" "http://www.w3.org/Graphics/SVG/1.1/DTD/svg11.dtd"><svg width="100%" height="100%" viewBox="0 0 1552 1534" version="1.1" xmlns="http://www.w3.org/2000/svg" xmlns:xlink="http://www.w3.org/1999/xlink" xml:space="preserve" xmlns:serif="http://www.serif.com/" style="fill-rule:evenodd;clip-rule:evenodd;stroke-linejoin:round;stroke-miterlimit:10;"><path d="M890.342,1081.87c6.567,29.25 10.148,60.291 10.148,91.332c0,22.684 -1.791,44.771 -5.372,66.261c-10.745,69.246 -38.802,132.522 -78.797,185.65c51.934,-19.699 109.838,-52.531 159.981,-108.047l0.597,0c9.551,-10.745 80.588,-90.736 104.466,-208.931c5.969,-29.25 9.551,-61.485 7.76,-94.914c-0.597,-10.745 -1.194,-21.49 -2.388,-31.638c-0.597,-4.776 -1.194,-9.551 -1.791,-13.73c-7.163,6.566 -16.714,10.745 -27.459,10.745c-17.908,-0 -33.429,-11.939 -38.205,-28.653c-4.775,-3.582 -17.311,-10.745 -34.026,-11.342c-20.296,-0.597 -34.622,8.357 -39.398,11.342c-4.775,16.714 -20.296,28.653 -38.204,28.653c-22.087,-0 -39.996,-17.908 -39.996,-39.995c0,-12.536 5.97,-23.281 14.924,-31.042c-8.954,-7.163 -14.924,-18.505 -14.924,-31.041c0,-4.775 1.194,-10.148 2.985,-14.326l-152.818,-34.026c85.96,58.5 149.236,148.639 172.517,253.702Z" style="fill:url(#_Linear1);fill-rule:nonzero;"/><path d="M1089.23,1013c-0.464,-10.572 -1.335,-21.138 -2.575,-31.614c-0.549,-4.6 -1.194,-9.15 -1.884,-13.746c-7.125,6.712 -16.724,10.844 -27.346,10.844c-18.014,-0 -33.221,-11.987 -38.093,-28.489c-5.054,-3.447 -17.137,-10.572 -34.098,-11.212c-20.034,-0.781 -34.42,7.997 -39.247,11.262l-0.318,-0.096c-4.827,16.502 -20.085,28.535 -38.098,28.535c-21.964,-0 -39.746,-17.782 -39.746,-39.746c-0,-12.547 5.789,-23.713 14.839,-30.974c-9.05,-7.306 -14.839,-18.472 -14.839,-31.019c-0,-5.195 1.007,-10.158 2.846,-14.703l-153.074,-33.871c86.255,58.592 149.401,148.66 172.882,253.714c6.616,29.457 10.108,60.108 10.108,91.586c-0,22.473 -1.794,44.487 -5.24,65.988c-10.935,68.981 -38.784,132.304 -79.175,185.655c52.106,-19.807 109.785,-52.615 160.38,-107.76c0.136,-0.136 0.272,-0.322 0.459,-0.504c9.649,-10.617 80.414,-90.482 104.545,-208.773c5.971,-29.457 9.095,-61.302 7.674,-95.077Z" style="fill:none;fill-rule:nonzero;stroke:#231f20;stroke-width:32.15px;"/><path d="M1230.95,1152.01c0,-0.736 -0.045,-1.472 -0.136,-2.202c-0.045,-2.207 -0.231,-4.46 -0.413,-6.667l0,-0.05c-0.186,-2.338 -0.458,-4.681 -0.735,-6.979c-0.232,-1.612 -0.464,-3.22 -0.696,-4.782c-0.413,-2.756 -0.912,-5.512 -1.511,-8.223c-0,-0.141 -0,-0.323 -0.091,-0.459c-0.277,-1.521 -0.6,-2.988 -0.963,-4.459c0,-0.136 -0.05,-0.277 -0.095,-0.368c-11.902,-5.008 -21.319,-10.848 -27.437,-17.278l-116.169,10.617c-24.126,118.281 -94.896,198.151 -104.546,208.768c22.836,10.657 48.297,16.633 75.179,16.633c98.156,0 177.75,-79.593 177.75,-177.749c-0,-2.252 -0.041,-4.55 -0.137,-6.802Z" style="fill:none;fill-rule:nonzero;stroke:#231f20;stroke-width:32.15px;"/><path d="M723.526,120.659c28.999,-14.154 64.245,-1.975 78.354,26.978l53.764,110.335c1.149,2.388 2.156,4.872 2.942,7.397l-35.659,17.373l-67.374,32.808l-80.052,-171.501l48.025,-23.39Z" style="fill:none;fill-rule:nonzero;stroke:#231f20;stroke-width:32.15px;"/><path d="M755.555,315.551l-80.051,-171.501l48.025,-23.39c28.993,-14.154 64.245,-1.975 78.348,26.973l53.764,110.34c1.154,2.388 2.162,4.872 2.943,7.397l-35.66,17.368l-67.369,32.813Z" style="fill:none;fill-rule:nonzero;stroke:#231f20;stroke-width:32.15px;"/><path d="M1231.09,1158.81c0,98.156 -79.593,177.749 -177.749,177.749c-26.882,0 -52.343,-5.97 -75.179,-16.628c9.649,-10.621 80.419,-90.487 104.545,-208.773l116.165,-10.611c6.117,6.429 15.535,12.264 27.441,17.273c0.046,0.095 0.091,0.231 0.091,0.368c0.368,1.471 0.69,2.937 0.967,4.459c0.086,0.141 0.086,0.322 0.086,0.458c0.6,2.711 1.104,5.468 1.517,8.229c0.232,1.557 0.463,3.169 0.695,4.777c0.272,2.297 0.549,4.64 0.731,6.983l-0,0.051c0.181,2.202 0.373,4.454 0.413,6.661c0.096,0.731 0.141,1.471 0.141,2.202c0.091,2.257 0.136,4.555 0.136,6.802" style="fill:#231f20;fill-rule:nonzero;"/><path d="M1231.09,1158.81c0,98.156 -79.593,177.749 -177.749,177.749c-26.882,0 -52.343,-5.97 -75.179,-16.628c9.649,-10.621 80.419,-90.487 104.545,-208.773l116.165,-10.611c6.117,6.429 15.535,12.264 27.441,17.273c0.046,0.095 0.091,0.231 0.091,0.368c0.368,1.471 0.69,2.937 0.967,4.459c0.086,0.141 0.086,0.322 0.086,0.458c0.6,2.711 1.104,5.468 1.517,8.229c0.232,1.557 0.463,3.169 0.695,4.777c0.272,2.297 0.549,4.64 0.731,6.983l-0,0.051c0.181,2.202 0.373,4.454 0.413,6.661c0.096,0.731 0.141,1.471 0.141,2.202c0.091,2.257 0.136,4.555 0.136,6.802Z" style="fill:none;fill-rule:nonzero;stroke:#231f20;stroke-width:32.15px;"/><path d="M1081.55,1108.08l-0.045,-0" style="fill:none;fill-rule:nonzero;stroke:#f15a29;stroke-width:1.61px;stroke-linejoin:miter;"/><path d="M1310.82,867.37c-56.198,0 -101.738,17.006 -101.738,38.003c-0,14.567 22.009,27.204 54.313,33.548c14.154,2.852 30.288,4.409 47.425,4.409c53.26,0 96.917,-15.257 101.376,-34.697c0.232,-1.053 0.363,-2.157 0.363,-3.26c-0,-20.997 -45.536,-38.003 -101.739,-38.003Z" style="fill:none;fill-rule:nonzero;stroke:#231f20;stroke-width:32.15px;"/><path d="M1209.1,905.351c-0,14.585 21.953,27.195 54.313,33.575c14.129,2.811 30.233,4.406 47.4,4.406c53.25,0 96.928,-15.268 101.409,-34.714c0.228,-1.064 0.304,-2.127 0.304,-3.267c0,-20.965 -45.501,-37.981 -101.713,-37.981c-56.212,0 -101.713,17.016 -101.713,37.981Z" style="fill:url(#_Linear2);fill-rule:nonzero;"/><path d="M1412.56,905.373c0,1.103 -0.131,2.207 -0.363,3.26c-4.459,19.44 -48.115,34.697 -101.375,34.697c-17.142,0 -33.272,-1.557 -47.431,-4.409c-32.303,-6.344 -54.313,-18.981 -54.313,-33.548c-0,-20.997 45.541,-38.003 101.744,-38.003c56.203,0 101.738,17.006 101.738,38.003Z" style="fill:none;fill-rule:nonzero;stroke:#231f20;stroke-width:32.15px;"/><path d="M1378.32,1068.79c-8.975,2.992 -19.397,5.404 -30.785,6.948c-11.387,1.641 -23.836,2.606 -36.671,2.606c-24.802,-0 -47.48,-3.281 -65.14,-8.782c-5.598,-7.913 -10.037,-16.309 -13.704,-25.091c-6.852,1.737 -13.317,3.764 -19.204,6.08c-25.091,9.457 -40.532,22.485 -40.532,36.864c0,6.273 2.895,12.16 8.203,17.757c6.08,6.369 15.537,12.256 27.407,17.274c25.863,10.809 63.5,17.66 105.479,17.66c77.878,0 141.088,-23.547 141.088,-52.691c0,-15.151 -17.177,-28.758 -44.681,-38.312c-5.597,-2.123 -11.773,-3.86 -18.239,-5.5c-3.378,8.685 -7.624,16.984 -13.221,25.187Z" style="fill:url(#_Linear3);fill-rule:nonzero;"/><path d="M1454.42,1087.44c0,29.089 -63.136,52.66 -141.031,52.66c-41.953,0 -79.638,-6.842 -105.467,-17.691c-11.902,-5.008 -21.32,-10.843 -27.432,-17.278c-5.331,-5.512 -8.178,-11.488 -8.178,-17.691c0,-14.426 15.434,-27.432 40.533,-36.899c5.88,-2.298 12.309,-4.324 19.202,-6.113c3.679,8.823 8.093,17.183 13.696,25.134c17.646,5.467 40.351,8.778 65.071,8.778c12.915,-0 25.32,-0.917 36.718,-2.57c11.352,-1.613 21.783,-4.001 30.747,-6.989c5.648,-8.223 9.881,-16.497 13.277,-25.179c6.48,1.607 12.592,3.401 18.246,5.467c27.481,9.554 44.618,23.204 44.618,38.371Z" style="fill:none;fill-rule:nonzero;stroke:#231f20;stroke-width:32.15px;"/><path d="M1413.34,920.95c-0.459,-7.719 -1.149,-12.314 -1.149,-12.314c-4.454,19.439 -48.111,34.692 -101.376,34.692c-17.137,-0 -33.266,-1.557 -47.425,-4.409c-32.304,-6.339 -54.313,-18.981 -54.313,-33.549c-0,0 -5.009,32.536 3.632,69.213c3.855,16.356 7.075,31.705 11.161,46.04c2.344,8.274 5.014,16.225 8.178,23.808c3.679,8.823 8.093,17.183 13.696,25.134c17.646,5.467 40.351,8.778 65.071,8.778c12.915,-0 25.325,-0.917 36.718,-2.57c11.352,-1.613 21.788,-4.001 30.747,-6.989c5.648,-8.223 9.881,-16.497 13.282,-25.179c2.847,-7.17 5.094,-14.617 7.12,-22.382c0.826,-3.124 1.607,-6.339 2.343,-9.604c2.484,-10.526 4.731,-21.692 7.583,-33.775c5.377,-22.841 5.422,-44.115 4.732,-56.894" style="fill:#231f20;fill-rule:nonzero;"/><path d="M1413.34,920.95c-0.459,-7.719 -1.149,-12.314 -1.149,-12.314c-4.454,19.439 -48.111,34.692 -101.376,34.692c-17.137,-0 -33.266,-1.557 -47.425,-4.409c-32.304,-6.339 -54.313,-18.981 -54.313,-33.549c-0,0 -5.009,32.536 3.632,69.213c3.855,16.356 7.075,31.705 11.161,46.04c2.344,8.274 5.014,16.225 8.178,23.808c3.679,8.823 8.093,17.183 13.696,25.134c17.646,5.467 40.351,8.778 65.071,8.778c12.915,-0 25.325,-0.917 36.718,-2.57c11.352,-1.613 21.788,-4.001 30.747,-6.989c5.648,-8.223 9.881,-16.497 13.282,-25.179c2.847,-7.17 5.094,-14.617 7.12,-22.382c0.826,-3.124 1.607,-6.339 2.343,-9.604c2.484,-10.526 4.731,-21.692 7.583,-33.775c5.377,-22.841 5.422,-44.115 4.732,-56.894Z" style="fill:none;fill-rule:nonzero;stroke:#231f20;stroke-width:32.15px;"/><path d="M1387.52,988.735c-1.789,7.538 -3.22,14.522 -4.732,21.138c-0.458,2.025 -0.967,4.046 -1.471,6.021c-1.285,4.827 -2.716,9.508 -4.459,14.018c-2.162,5.422 -4.777,10.612 -8.319,15.762c-6.158,2.02 -13.373,3.633 -21.274,4.64l-0,-84.601c23.249,-2.988 40.3,-10.849 42.502,-20.357c0,-0 0.413,2.892 0.691,7.719c0.463,7.997 0.418,21.32 -2.938,35.66" style="fill:#465d77;fill-rule:nonzero;"/><path d="M1387.52,988.735c-1.789,7.538 -3.22,14.522 -4.732,21.138c-0.458,2.025 -0.967,4.046 -1.471,6.021c-1.285,4.827 -2.716,9.508 -4.459,14.018c-2.162,5.422 -4.777,10.612 -8.319,15.762c-6.158,2.02 -13.373,3.633 -21.274,4.64l-0,-84.601c23.249,-2.988 40.3,-10.849 42.502,-20.357c0,-0 0.413,2.892 0.691,7.719c0.463,7.997 0.418,21.32 -2.938,35.66Z" style="fill:none;fill-rule:nonzero;stroke:#231f20;stroke-width:18.39px;"/><path d="M1378.28,1068.79c-0.184,0.277 -0.365,0.55 -0.549,0.827" style="fill:none;fill-rule:nonzero;stroke:#231f20;stroke-width:32.15px;"/><path d="M1476.36,975.783c0,27.25 -23.163,49.304 -51.743,49.304c-9.282,0 -17.969,-2.343 -25.507,-6.384c2.484,-10.521 4.732,-21.692 7.584,-33.78c5.376,-22.836 5.421,-44.11 4.731,-56.888c4.228,-1.058 8.642,-1.607 13.192,-1.607c28.58,-0 51.743,22.105 51.743,49.355Z" style="fill:none;fill-rule:nonzero;stroke:#231f20;stroke-width:32.15px;"/><path d="M1019.42,950.043c-0.045,-0.001 -0.042,-0.05 -0.094,-0.049" style="fill:none;fill-rule:nonzero;stroke:#f15a29;stroke-width:1.61px;stroke-linejoin:miter;"/><path d="M1017.06,1054.09c0,11.337 -9.186,20.523 -20.523,20.523c-11.332,-0 -20.523,-9.186 -20.523,-20.523c-0,-11.337 9.191,-20.523 20.523,-20.523c11.337,-0 20.523,9.186 20.523,20.523" style="fill:#231f20;fill-rule:nonzero;"/><path d="M1017.06,1054.09c0,-11.327 -9.196,-20.523 -20.523,-20.523c-11.327,-0 -20.523,9.196 -20.523,20.523c-0,11.327 9.196,20.523 20.523,20.523c11.327,-0 20.523,-9.196 20.523,-20.523Z" style="fill:none;stroke:#231f20;stroke-width:9.17px;"/><path d="M1012.46,1135.51c0,11.343 -9.186,20.529 -20.523,20.529c-11.332,-0 -20.518,-9.186 -20.518,-20.529c0,-11.332 9.186,-20.523 20.518,-20.523c11.337,0 20.523,9.191 20.523,20.523" style="fill:#231f20;fill-rule:nonzero;"/><path d="M1012.46,1135.51c0,-11.329 -9.196,-20.528 -20.523,-20.528c-11.327,0 -20.523,9.199 -20.523,20.528c-0,11.33 9.196,20.529 20.523,20.529c11.327,-0 20.523,-9.199 20.523,-20.529Z" style="fill:none;stroke:#231f20;stroke-width:9.17px;"/><path d="M900.587,1173.47c0,22.473 -1.793,44.487 -5.24,65.993c-10.939,68.976 -38.784,132.304 -79.18,185.65c-61.851,23.531 -115.897,28.726 -140.94,31.115c-149.26,14.29 -261.62,-43.102 -303.941,-65.485c-74.726,-39.564 -121.229,-85.614 -130.465,-94.896c-57.579,-58.037 -121.41,-154.545 -150.041,-264.099c-23.713,-90.25 -23.481,-189.328 23.758,-282.939c2.807,-5.558 5.744,-10.985 8.732,-16.316c21.461,47.29 56.294,87.222 99.628,114.981c41.635,26.701 91.127,42.139 144.251,42.139c93.056,0 175.043,-47.47 223.017,-119.57c149.628,39.519 266.352,160.057 300.309,311.841c6.621,29.457 10.112,60.108 10.112,91.586" style="fill:#231f20;fill-rule:nonzero;"/><path d="M900.587,1173.47c0,22.473 -1.793,44.487 -5.24,65.993c-10.939,68.976 -38.784,132.304 -79.18,185.65c-61.851,23.531 -115.897,28.726 -140.94,31.115c-149.26,14.29 -261.62,-43.102 -303.941,-65.485c-74.726,-39.564 -121.229,-85.614 -130.465,-94.896c-57.579,-58.037 -121.41,-154.545 -150.041,-264.099c-23.713,-90.25 -23.481,-189.328 23.758,-282.939c2.807,-5.558 5.744,-10.985 8.732,-16.316c21.461,47.29 56.294,87.222 99.628,114.981c41.635,26.701 91.127,42.139 144.251,42.139c93.056,0 175.043,-47.47 223.017,-119.57c149.628,39.519 266.352,160.057 300.309,311.841c6.621,29.457 10.112,60.108 10.112,91.586Z" style="fill:none;fill-rule:nonzero;stroke:#231f20;stroke-width:32.15px;"/><path d="M573.203,882.021c6.737,26.262 19.188,50.493 38.129,67.812c4.797,4.57 9.251,7.901 15.071,11.599c5.709,3.668 12.038,7.281 18.225,10.788c12.466,6.964 25.038,13.469 38.013,19.173c12.955,5.85 26.323,10.597 40.895,16.845c7.256,3.144 14.784,6.898 21.879,11.478c7.054,4.59 13.67,9.7 19.827,15.232c12.184,11.192 22.529,24.01 30.939,37.988c8.379,13.993 14.859,29.17 18.709,45.294c7.881,32.546 2.696,67.439 -10.813,96.297c-6.561,14.622 -14.935,28.151 -24.413,40.562c-9.458,12.441 -19.894,23.949 -31.155,34.571c-5.699,5.316 -11.418,10.38 -17.697,15.122c-6.046,4.963 -12.587,9.266 -19.082,13.579c-13.171,8.39 -27.355,15.076 -42.003,20.04c-29.306,9.83 -60.632,12.904 -90.336,7.608c14.698,-3.371 28.893,-7.009 42.674,-11.443c13.751,-4.515 27.073,-9.644 39.831,-15.696c12.739,-6.077 24.998,-12.894 36.502,-20.78c5.633,-4.101 11.317,-8.137 16.507,-12.773c5.366,-4.374 10.526,-9.322 15.439,-14.28c19.57,-20.135 36.526,-43.218 46.75,-68.266c5.159,-12.456 8.974,-25.365 9.916,-38.355l0.534,-4.853l-0.06,-4.852c-0.126,-3.225 0.186,-6.475 -0.247,-9.665c-0.927,-6.379 -1.451,-12.778 -3.275,-19.031c-6.883,-25.018 -21.622,-48.856 -41.142,-66.079c-4.908,-4.258 -10.083,-8.097 -15.454,-11.489c-5.402,-3.325 -11.156,-6.157 -17.445,-8.878c-12.602,-5.356 -27.119,-10.491 -41.136,-16.714c-14.104,-6.117 -27.865,-13.111 -41.102,-20.699c-6.641,-3.82 -13.126,-7.563 -19.833,-11.912c-6.651,-4.217 -14.043,-9.826 -19.878,-15.53c-12.164,-11.518 -22.156,-25.138 -29.739,-39.69c-7.634,-14.547 -12.824,-30.032 -16.331,-45.581l31.301,-7.422Z" style="fill:#f6c37e;fill-rule:nonzero;"/><path d="M372.346,939.906c-4.751,5.125 -9.83,11.927 -13.977,18.594c-4.263,6.777 -7.79,13.977 -10.849,21.329c-5.729,14.789 -9.045,30.5 -8.274,46.196c0.499,7.825 1.719,15.64 3.88,23.284c2.242,7.614 5.518,14.94 9.468,21.924c8.022,13.927 19.379,26.061 32.742,35.473l0.02,0.005c3.316,2.278 4.732,6.289 3.875,9.977l-0.136,0.564c-5.437,23.118 -5.799,48.101 -0.085,70.66c5.573,22.704 18.714,42.673 36.889,57.12c9.029,7.271 19.359,13.065 30.404,17.106c10.99,4.188 22.659,6.828 34.541,7.821c11.907,1.083 23.899,0.136 35.957,-1.265c12.143,-1.31 24.297,-3.447 37.796,-5.236c-9.387,9.806 -21.475,16.543 -34.35,20.856c-12.929,4.379 -26.786,5.402 -40.466,5.014c-13.706,-0.454 -27.442,-2.757 -40.638,-7.1c-13.167,-4.404 -25.723,-10.944 -36.93,-19.43c-22.402,-16.839 -39.181,-42.069 -45.233,-69.444c-6.334,-27.321 -4.807,-55.337 3.804,-81.463l3.744,10.536l-0.02,-0.015c-15.57,-10.591 -29.291,-24.171 -39.686,-40.265c-10.506,-16.028 -17.127,-34.702 -19.581,-54.072c-2.363,-19.419 0.338,-39.171 6.037,-57.573c2.988,-9.166 6.767,-18.019 11.075,-26.61c4.455,-8.667 9.161,-16.578 15.636,-24.997l24.357,21.011Z" style="fill:#f6c37e;fill-rule:nonzero;"/><path d="M159.866,853.725c-1.637,30.077 -2.101,60.133 -0.574,90.064c0.267,7.492 0.917,14.95 1.592,22.402c0.454,7.488 1.466,14.89 2.313,22.327c1.834,14.85 4.414,29.578 7.377,44.236c6.238,29.23 14.95,58.002 26.922,85.534c12.123,27.522 26.267,53.875 40.144,82.268c-25.143,-19.253 -44.593,-45.026 -59.302,-72.951c-14.965,-27.88 -26.71,-57.569 -35.08,-88.154c-4.232,-15.283 -7.724,-30.767 -10.36,-46.388c-2.726,-15.6 -4.807,-31.321 -5.965,-47.087c-2.616,-31.523 -2.55,-63.187 -0.026,-94.554l32.959,2.303Z" style="fill:#445d77;fill-rule:nonzero;"/><path d="M849.181,1337.89c-22.276,21.239 -46.734,39.913 -73.022,55.518c-26.338,15.484 -54.49,27.955 -83.886,35.957c-29.361,8.032 -59.952,11.423 -90.094,9.488c-30.162,-1.441 -59.76,-8.727 -87.423,-19.919c28.333,9.398 58.022,14.668 87.589,14.17c29.558,-0 58.879,-5.216 86.572,-14.734c55.452,-19.132 104.535,-54.061 143.833,-96.559l16.431,16.079Z" style="fill:#455d77;fill-rule:nonzero;"/><path d="M1097.18,938.735c-0,11.352 -4.777,21.647 -12.406,28.902c-7.125,6.712 -16.724,10.849 -27.346,10.849c-18.013,0 -33.22,-11.992 -38.093,-28.494c-5.054,-3.442 -17.142,-10.567 -34.098,-11.207c-20.034,-0.786 -34.42,7.997 -39.247,11.257l-0.317,-0.091c-4.828,16.497 -20.085,28.535 -38.099,28.535c-21.964,0 -39.751,-17.787 -39.751,-39.751c0,-12.547 5.795,-23.713 14.844,-30.969c-9.049,-7.311 -14.844,-18.477 -14.844,-31.024c0,-21.918 17.787,-39.746 39.751,-39.746c21.924,0 39.706,17.828 39.706,39.746c5.009,3.402 17.137,10.572 34.188,11.262c20.04,0.781 34.42,-7.996 39.248,-11.262l0.226,-0.045c-0.136,-1.471 -0.226,-2.988 -0.226,-4.505c-0,-19.434 13.922,-35.609 32.394,-39.061c2.394,-0.458 4.827,-0.685 7.357,-0.685c21.914,0 39.751,17.782 39.751,39.746c0,14.573 -7.861,27.346 -19.581,34.284c10.017,7.171 16.543,18.931 16.543,32.259" style="fill:#231f20;fill-rule:nonzero;"/><path d="M1097.18,938.735c-0,11.352 -4.777,21.647 -12.406,28.902c-7.125,6.712 -16.724,10.849 -27.346,10.849c-18.013,0 -33.22,-11.992 -38.093,-28.494c-5.054,-3.442 -17.142,-10.567 -34.098,-11.207c-20.034,-0.786 -34.42,7.997 -39.247,11.257l-0.317,-0.091c-4.828,16.497 -20.085,28.535 -38.099,28.535c-21.964,0 -39.751,-17.787 -39.751,-39.751c0,-12.547 5.795,-23.713 14.844,-30.969c-9.049,-7.311 -14.844,-18.477 -14.844,-31.024c0,-21.918 17.787,-39.746 39.751,-39.746c21.924,0 39.706,17.828 39.706,39.746c5.009,3.402 17.137,10.572 34.188,11.262c20.04,0.781 34.42,-7.996 39.248,-11.262l0.226,-0.045c-0.136,-1.471 -0.226,-2.988 -0.226,-4.505c-0,-19.434 13.922,-35.609 32.394,-39.061c2.394,-0.458 4.827,-0.685 7.357,-0.685c21.914,0 39.751,17.782 39.751,39.746c0,14.573 -7.861,27.346 -19.581,34.284c10.017,7.171 16.543,18.931 16.543,32.259Z" style="fill:none;fill-rule:nonzero;stroke:#231f20;stroke-width:32.15px;"/><path d="M906.472,869.988l-35.8,-7.952" style="fill:none;fill-rule:nonzero;stroke:#231f20;stroke-width:1.16px;"/><path d="M717.598,828.169l-29.919,-6.612" style="fill:none;fill-rule:nonzero;stroke:#231f20;stroke-width:1.16px;"/><path d="M931.972,313.391l-89.379,-183.448c-23.481,-48.161 -82.077,-68.382 -130.283,-44.896l-183.448,89.379c-48.161,23.435 -68.382,82.072 -44.896,130.233l89.378,183.448c1.976,4.046 4.183,7.86 6.621,11.493l58.592,-28.585l239.006,-116.447l59.327,-28.907c-1.336,-4.137 -2.988,-8.274 -4.918,-12.27Z" style="fill:#231f20;fill-rule:nonzero;stroke:#231f20;stroke-width:32.15px;"/><path d="M858.584,265.37l-35.66,17.368l-67.369,32.813l-80.051,-171.501l48.02,-23.39c28.998,-14.154 64.244,-1.975 78.353,26.973l53.764,110.34c1.154,2.388 2.162,4.872 2.943,7.397Z" style="fill:#445d77;fill-rule:nonzero;stroke:#231f20;stroke-width:32.15px;"/><path d="M608.913,458.437l278.622,-134.045l-20.353,-42.305l-278.622,134.044l20.353,42.306Z" style="fill:url(#_Linear4);"/><path d="M867.177,282.049l-278.632,134.064l20.51,42.627l278.632,-134.064l-20.51,-42.627Z" style="fill:none;stroke:#231f20;stroke-width:9.17px;"/><path d="M1214.64,1188.38c-19.233,62.073 -66.628,111.841 -123.406,134.118c53.195,-29.865 89.817,-83.675 98.902,-139.973l24.504,5.855Z" style="fill:#465d77;fill-rule:nonzero;"/><path d="M1056.75,537.245c8.515,-7.185 20.684,-8.914 31.598,-6.666c10.919,2.252 20.775,8.037 29.82,14.537c9.05,6.505 17.53,13.821 26.973,19.732c21.43,13.403 48.498,18.981 72.594,11.357c12.375,-3.91 23.45,-11.015 35.055,-16.819c11.609,-5.81 24.468,-10.426 37.337,-8.768c12.718,1.643 24.423,9.755 30.425,21.087c6.006,11.328 6.142,25.572 0.362,37.015c-20.538,-8.752 -44.064,-6.842 -65.842,-1.914c-21.772,4.923 -43.847,10.909 -65.343,16.673c-20.75,5.558 -50.222,1.487 -65.313,-16.714c-5.906,-7.119 -11.428,-12.652 -17.832,-19.323c-6.415,-6.672 -13.091,-13.313 -22.297,-14.225c-6.455,-0.64 -12.889,1.24 -19.374,1.446c-21.864,0.706 -21.617,-26.066 -8.163,-37.418" style="fill:#fff;fill-rule:nonzero;"/><path d="M1321.21,630.715c-14.245,29.316 -34.939,46.468 -45.415,52.807c-49.396,29.87 -112.774,43.333 -147.279,28.489c-1.386,-0.595 -2.666,-1.194 -3.956,-1.879c-3.814,-2.026 -16.497,-4.828 -25.179,-3.911c-22.292,2.253 -20.357,22.015 -41.963,25.552c-15.253,2.479 -30.374,-8.868 -35.105,-22.745c4.368,-8.732 9.009,-18.109 10.248,-30.792c0.827,-8.269 6.113,-29.044 6.843,-36.531c1.703,-16.729 3.406,-14.754 -0.73,-41.591c-0.645,-4.182 -1.421,-9.281 -1.845,-14.748c1.2,-1.794 3.014,-3.155 4.142,-5.054c7.427,-12.572 21.914,-20.211 36.396,-17.893c4.504,0.725 13.347,7.714 23.319,17.878c11.519,11.73 20.327,20.17 29.114,25.577c24.222,14.904 42.85,15.988 56.485,14.128c23.764,-3.245 63.948,-17.222 76.389,-22.508c31.341,-13.307 48.352,-18.744 56.203,2.514c4.308,11.675 1.159,21.476 2.333,30.707" style="fill:#f4c37d;fill-rule:nonzero;"/><path d="M1121,617.142c4.054,6.426 4.487,13.442 0.949,15.672c-3.536,2.233 -9.683,-1.167 -13.743,-7.584c-4.054,-6.426 -4.487,-13.442 -0.951,-15.676c3.538,-2.229 9.683,1.167 13.745,7.588" style="fill:#231f20;fill-rule:nonzero;"/><path d="M1121,617.142c-4.055,-6.419 -10.214,-9.819 -13.745,-7.588c-3.532,2.231 -3.107,9.254 0.948,15.672c4.055,6.419 10.214,9.819 13.746,7.588c3.531,-2.231 3.106,-9.254 -0.949,-15.672Z" style="fill:none;stroke:#231f20;stroke-width:7.71px;"/><path d="M1071.96,690.677c8.889,-5.976 18.594,-9.851 29.059,-11.66c13.318,-2.303 26.041,3.598 38.965,7.543c30.047,9.156 63.258,0.317 92.483,-10.607c29.22,-10.919 55.85,-27.713 81.885,-44.9c-20.341,30.439 -50.146,54.464 -84.213,67.872c-34.068,13.404 -72.252,16.14 -107.886,7.72c-7.206,-1.698 -14.356,-3.855 -21.743,-4.414c-7.382,-0.56 -15.197,0.64 -21.143,5.054c-6.278,4.661 -9.881,12.415 -16.542,16.507c-8.188,5.024 -20.095,2.585 -25.642,-5.256c-2.681,-3.774 -3.326,-4.787 -2.812,-9.352c0.373,-3.345 2.393,-9.301 6.198,-10.506c2.065,-0.655 2.665,-0.085 4.666,0.449c2.751,0.735 6.595,3.512 9.427,3.32c5.87,-0.388 12.204,-8.344 17.298,-11.77" style="fill:#d19656;fill-rule:nonzero;"/><path d="M1337.38,608.418c-1.149,8.319 -3.633,15.993 -7.034,22.977c-14.245,29.316 -44.069,47.103 -54.545,53.447c-49.396,29.87 -112.774,43.334 -147.279,28.489c-1.386,-0.594 -2.666,-1.194 -3.956,-1.884c-3.814,-2.021 -16.497,-4.822 -25.179,-3.905c-22.292,2.252 -20.357,22.014 -41.963,25.551c-15.253,2.48 -30.374,-8.873 -35.105,-22.745c1.194,-2.393 2.983,-7.996 4.963,-15.031c0.509,-1.839 1.058,-3.814 1.607,-5.789c3.084,-11.675 6.344,-25.507 8.501,-35.201c0.141,-0.459 0.231,-0.872 0.282,-1.33c0.181,-0.787 0.317,-1.522 0.453,-2.258c0.182,-0.826 0.323,-1.602 0.459,-2.298c0.141,-0.73 0.232,-1.375 0.368,-2.02l0.141,-0.826c-0,-0.091 0.045,-0.182 0.045,-0.278c0.045,-0.226 0.045,-0.413 0.091,-0.594l-0,-0.141c-0,-0.136 0.045,-0.272 0.045,-0.413c0,-0.091 0.051,-0.137 0.051,-0.227c0.04,-0.368 0.04,-0.645 0.085,-0.922c1.703,-16.724 3.406,-14.749 -0.73,-41.586c-0.323,-1.935 -0.595,-4.091 -0.923,-6.343c-0.045,-0.182 -0.045,-0.368 -0.085,-0.55c-0.096,-0.599 -0.141,-1.194 -0.232,-1.794l-0,-0.322c-0.096,-0.872 -0.232,-1.789 -0.328,-2.711c-0.085,-1.013 -0.181,-2.02 -0.277,-3.033c-0.04,-0.459 -0.085,-0.872 -0.085,-1.331c-0.096,-1.244 -0.136,-2.484 -0.232,-3.723c-0.413,-12.728 1.779,-26.842 10.329,-37.64c11.116,-14.033 26.575,-17.238 39.747,-12.884c4.328,1.431 11.362,3.512 20.649,14.315c10.616,12.405 19.711,21.415 27.708,27.94c23.254,19.022 37.131,17.046 52.111,15.162c25.32,-3.17 68.523,-18.563 82.304,-24.448c24.081,-10.34 45.909,-5.236 53.724,1.335c2.111,1.789 3.9,3.764 5.467,5.88c2.117,2.847 3.769,5.971 5.054,9.191c4.505,11.166 4.414,23.163 3.769,27.94Z" style="fill:none;fill-rule:nonzero;stroke:#231f20;stroke-width:32.15px;"/><path d="M1033.36,271.45l-549.573,262.926c-31.951,15.248 -45.338,53.666 -29.787,86.289c15.248,31.95 53.666,45.338 85.617,30.09l549.269,-263.598c31.951,-15.248 45.339,-53.666 30.091,-85.616c-11.301,-23.215 -34.218,-36.325 -57.957,-36.926c-9.582,0.284 -19.228,2.216 -27.66,6.835Z" style="fill:url(#_Linear5);fill-rule:nonzero;"/><path d="M1088.71,387.335l-548.963,263.233c-32.057,15.373 -70.498,1.844 -85.871,-30.208c-15.369,-32.057 -1.844,-70.503 30.212,-85.871l548.964,-263.233c32.052,-15.368 70.498,-1.844 85.871,30.208c15.368,32.057 1.844,70.503 -30.213,85.871Z" style="fill:none;fill-rule:nonzero;stroke:#231f20;stroke-width:32px;"/><path d="M1029.92,409.864l-441.184,211.549c-13.917,6.677 -30.61,0.801 -37.287,-13.116c-6.671,-13.917 -0.801,-30.611 13.116,-37.287l441.188,-211.549c13.918,-6.672 30.606,-0.802 37.288,13.121c6.671,13.917 0.801,30.605 -13.121,37.282" style="fill:#231f20;fill-rule:nonzero;"/><path d="M997.254,388.207l-169.946,81.974l-31.49,14.995l-49.484,23.993l-128.46,61.98l-25.992,12.496c-1.999,11.497 -3.499,23.493 -3.999,35.989l0,20.494c1,34.489 8.498,66.979 20.994,96.969c-5.498,11.496 -11.996,22.493 -18.494,32.99c3.499,0.999 6.998,1.999 10.496,2.999c2.5,0.5 4.999,1.499 7.498,2.499c1.5,-0 7.998,2.499 9.497,2.999c2.499,0.5 4.998,1.5 7.998,2.499c2.499,1 4.998,2 7.497,2.999c4.999,2 10.497,3.999 15.495,5.998c1,1 6.498,2.999 7.998,3.999c2.499,1 4.998,1.999 7.497,3.499c2.999,1.5 6.498,2.999 9.997,4.998c2.499,1 4.499,2.5 6.998,3.499c1.999,1.5 4.499,2.5 6.498,3.499c10.497,5.998 19.994,11.996 29.991,18.494l152.951,33.99c0.5,-2 1.5,-3.499 2.5,-5.499c0.499,-0.499 0.999,-1.499 1.499,-1.999c0.5,-1 1,-1.5 1.5,-2.499c0.499,-0.5 0.999,-1.5 1.999,-2c2.999,-3.498 6.998,-6.997 11.996,-8.997c0,0 0.5,-0.5 1,-0.5c0.5,-0.499 1.499,-0.499 1.999,-0.999c2.499,-1 5.498,-1.5 8.498,-2c0.999,-0.499 1.999,-0.499 2.499,-0.499l3.499,-0c21.493,-0 39.487,17.994 39.487,39.487c4.999,3.499 16.995,10.997 33.989,11.496l2.5,0c18.994,0 32.489,-7.997 36.988,-11.496l0,-4.498c0,-19.494 13.996,-35.489 32.49,-38.988c25.992,-23.993 46.985,-53.483 61.98,-85.973c5.499,-10.997 9.497,-21.993 13.496,-33.989c-1.5,-0.5 -2.999,-1 -3.999,-1.5c-3.998,-1.999 -16.495,-4.998 -25.492,-3.999c-21.993,2 -19.993,21.993 -41.986,25.492c-14.996,2.5 -29.991,-8.997 -34.989,-22.992c2.499,-4.999 4.998,-9.997 6.997,-15.995c0.5,-0.5 2,-6.498 2.5,-7.998c-0,-1 2.999,-14.995 2.999,-15.495c0.999,-4.998 4.498,-26.492 4.498,-26.492c0,0 3.499,-15.995 -0.5,-42.486c-0.499,-2 -0.499,-4.499 -0.999,-6.498l-0,-0.5c-0,-0.5 -0,-1.5 -0.5,-1.999c-0,-1 -0.5,-4.999 -0.5,-5.999l-0,-4.998c-0.5,-12.996 0.5,-27.991 9.997,-37.488c11.996,-12.496 25.992,-11.497 36.988,-10.497c4.499,0.5 13.496,2 23.493,11.996c11.496,10.997 19.494,20.994 27.491,27.492c-1.999,-10.997 -4.998,-21.993 -8.997,-32.99c-1,-3.499 -2.499,-6.498 -3.499,-9.497c-16.995,-43.486 -44.486,-81.974 -79.475,-111.465c-5.498,-4.498 -10.996,-8.997 -16.995,-12.996c-8.997,-6.498 -18.494,-12.496 -28.491,-17.994Z" style="fill:url(#_Linear6);fill-rule:nonzero;"/><path d="M1124.57,711.447c1.29,0.69 2.575,1.285 3.956,1.884c-3.633,11.579 -7.997,22.841 -13.056,33.73c-15.116,32.626 -36.39,61.851 -62.36,86.073c-18.473,3.447 -32.39,19.621 -32.39,39.061c0,1.517 0.086,3.033 0.227,4.5l-0.227,0.05c-4.646,3.124 -18.019,11.302 -36.718,11.302c-0.831,-0 -1.703,-0 -2.529,-0.045c-17.051,-0.691 -29.18,-7.861 -34.193,-11.257c-0,-21.919 -17.782,-39.751 -39.701,-39.751c-1.058,-0 -2.071,0.045 -3.129,0.136c-0.867,0.045 -1.698,0.141 -2.57,0.277c-2.988,0.413 -5.84,1.194 -8.551,2.252c-0.781,0.277 -1.512,0.595 -2.252,0.917c-0.363,0.141 -0.691,0.323 -1.008,0.509c-4.55,2.207 -8.546,5.236 -11.947,8.959c-0.6,0.645 -1.154,1.336 -1.653,1.975c-0.645,0.827 -1.29,1.658 -1.844,2.53c-0.504,0.69 -0.962,1.426 -1.376,2.202c-1.012,1.703 -1.839,3.446 -2.575,5.286l-153.074,-33.866c-9.603,-6.525 -19.485,-12.688 -29.638,-18.382c-2.161,-1.239 -4.368,-2.439 -6.57,-3.633c-2.298,-1.239 -4.646,-2.479 -6.984,-3.673c-3.401,-1.794 -6.803,-3.492 -10.249,-5.15c-2.434,-1.149 -4.918,-2.297 -7.402,-3.446c-1.33,-0.645 -2.666,-1.24 -3.996,-1.794c-1.33,-0.595 -2.711,-1.189 -4.046,-1.789c-5.054,-2.207 -10.153,-4.273 -15.303,-6.248c-2.57,-1.013 -5.145,-1.975 -7.765,-2.897c-2.57,-0.963 -5.19,-1.885 -7.81,-2.757c-1.607,-0.554 -3.22,-1.103 -4.827,-1.607c-1.471,-0.509 -2.938,-0.967 -4.459,-1.426c-2.616,-0.831 -5.236,-1.658 -7.901,-2.393c-3.447,-1.053 -6.984,-2.016 -10.481,-2.938c6.943,-10.43 13.192,-21.415 18.659,-32.813c-12.547,-30.051 -19.899,-62.773 -20.997,-97.098c-0.141,-3.083 -0.186,-6.157 -0.186,-9.236c-0,-3.769 0.09,-7.538 0.277,-11.261c0.458,-12.27 1.743,-24.308 3.769,-36.073l26.146,-12.592l0.045,-0l128.626,-61.993l49.214,-23.712l0.141,-0.046l31.337,-15.116l170.034,-81.891l0.046,0c9.881,5.467 19.439,11.483 28.534,18.059c5.745,4.092 11.308,8.455 16.684,13.005c35.11,29.548 62.773,67.687 79.684,111.207c1.239,3.169 2.438,6.389 3.542,9.649c3.769,10.803 6.843,21.874 9.236,33.226c-7.996,-6.525 -15.983,-16.578 -27.713,-27.94c-9.997,-9.685 -19.118,-11.025 -23.658,-11.514c-10.878,-1.164 -24.644,-2.363 -36.738,10.088c-9.593,9.886 -10.742,24.907 -10.329,37.64c0.096,1.239 0.141,2.479 0.232,3.723c-0,0.459 0.045,0.872 0.09,1.331c0.091,1.008 0.187,2.02 0.278,3.033c0.09,0.917 0.186,1.839 0.322,2.711l-0,0.322c0.096,0.6 0.136,1.195 0.232,1.789c0.045,0.187 0.045,0.373 0.085,0.555c0.328,2.252 0.605,4.408 0.923,6.343c4.136,26.837 0.594,42.644 0.594,42.735c0,0.136 -3.582,21.399 -4.545,26.408c-0.136,0.645 -3.038,14.769 -3.22,15.731c-0.272,1.426 -1.834,7.08 -2.111,7.815c-1.975,5.971 -4.55,11.212 -7.079,16.22c4.731,13.877 19.852,25.23 35.11,22.745c21.601,-3.537 19.666,-23.299 41.958,-25.546c8.687,-0.922 21.365,1.884 25.179,3.905Z" style="fill:none;fill-rule:nonzero;stroke:#231f20;stroke-width:32.15px;stroke-linecap:round;"/><path d="M767.266,782.028c-64.658,-2.943 -119.39,-44.024 -142.231,-101.24c-7.397,-18.518 -11.488,-38.693 -11.488,-59.831c-0,-10.43 1.012,-20.679 2.897,-30.56l98.433,-47.289c-20.402,26.977 -32.445,60.526 -32.445,96.921c0,61.393 34.33,114.794 84.834,141.999Z" style="fill:#d29658;fill-rule:nonzero;stroke:#d29658;stroke-width:1.16px;"/><path d="M969.148,605.76c0,25.809 -20.916,46.725 -46.72,46.725c-25.814,0 -46.73,-20.916 -46.73,-46.725c0,-25.809 20.916,-46.725 46.73,-46.725c25.804,0 46.72,20.916 46.72,46.725" style="fill:#231f20;fill-rule:nonzero;"/><path d="M969.148,605.76c0,-25.788 -20.937,-46.725 -46.725,-46.725c-25.788,0 -46.725,20.937 -46.725,46.725c0,25.788 20.937,46.725 46.725,46.725c25.788,0 46.725,-20.937 46.725,-46.725Z" style="fill:none;stroke:#231f20;stroke-width:9.17px;"/><path d="M1078.14,481.974c-0.051,-0.05 -0.152,-0.151 -0.202,-0.201c-25.9,-25.346 -56.707,-44.342 -89.968,-55.578c-1.26,-0.706 -5.185,-1.714 -5.185,-1.714l-14.612,-4.635l28.267,-13.454c6.243,3.426 12.597,7.558 18.342,11.69c3.678,2.62 7.104,5.341 10.576,8.062c20.155,15.721 38.169,34.365 52.782,55.83" style="fill:#fff;fill-rule:nonzero;"/><rect x="960.441" y="897.686" width="53.396" height="33.463" style="fill:#465d77;"/><path d="M1349.81,836.458c30.855,4.346 56.215,13.511 71.025,24.186c4.059,2.926 7.556,6.009 10.508,9.156l9.036,12.579l4.187,10.773l0.259,2.008c37.618,8.866 65.118,41.917 65.118,80.613c0,29.374 -15.837,55.469 -39.92,70.212c5.655,5.798 9.859,11.92 12.744,18.081l3.866,11.122l1.408,12.219l-1.76,13.661l-4.741,12.183c-4.696,8.937 -12.326,17.805 -23.214,25.648c-27.248,19.625 -81.73,34.791 -144.965,34.791c-17.134,0 -33.612,-1.058 -49.023,-2.988c-6.175,111.17 -98.3,199.438 -211.011,199.438c-24.471,-0 -47.951,-4.169 -69.798,-11.809c-13.074,12.702 -26.483,24.156 -40.056,34.49c-38.386,29.386 -78.216,49.646 -115.25,63.693c-0.635,0.241 -1.273,0.462 -1.915,0.662c-64.953,24.421 -121.543,29.966 -147.891,32.479c-158.511,15.176 -277.903,-45.459 -322.847,-69.229l-0.014,-0.007c-79.39,-42.034 -128.745,-91.028 -138.558,-100.889l-0.036,-0.036c-60.881,-61.366 -128.402,-163.39 -158.684,-279.226c-25.698,-97.813 -24.938,-205.15 26.259,-306.605l0.004,-0.009c3.027,-5.993 6.192,-11.848 9.415,-17.597c6.193,-11.049 18.073,-17.675 30.728,-17.138c12.654,0.537 23.931,8.147 29.165,19.68c18.773,41.368 49.25,76.294 87.157,100.577l0.014,0.009c36.401,23.343 79.673,36.824 126.118,36.824c81.389,0 153.09,-41.528 195.049,-104.589l0.004,-0.006c1.516,-2.277 2.994,-4.584 4.456,-6.959c1.821,-3.047 3.62,-6.137 5.369,-9.273c-6.41,-17.941 -11.206,-36.643 -14.217,-55.91l-3.663,1.758l-0.065,0.031c-48.676,23.23 -107.171,2.738 -130.401,-45.938l-0.007,-0.013c-0.832,-1.745 -1.608,-3.502 -2.33,-5.268c-4.038,-9.785 -6.37,-19.891 -7.127,-29.97c-3.069,-39.457 17.746,-77.996 55.069,-95.809l60.393,-28.893l-75.906,-155.798c-31.589,-64.776 -4.387,-143.641 60.375,-175.155l183.449,-89.379c64.823,-31.581 143.616,-4.388 175.191,60.374l77.262,158.58l68.479,-32.836c3.961,-1.899 7.987,-3.507 11.997,-4.814c9.454,-3.217 19.489,-4.818 29.495,-5.115c0.615,-0.018 1.231,-0.019 1.846,-0.004c9.481,0.24 18.875,1.814 27.873,4.652c24.446,7.539 45.881,24.582 58.366,49.018c0.364,0.705 0.722,1.417 1.071,2.135c0.038,0.078 0.076,0.156 0.113,0.234c17.452,36.569 10.227,78.701 -15.094,107.22c-8.411,9.492 -18.809,17.507 -30.961,23.333l-9.273,4.447c10.106,11.163 19.415,23.089 27.84,35.666c12.673,18.807 23.332,39.084 31.667,60.524c0.727,1.86 1.442,3.736 2.104,5.543c0.71,1.815 1.391,3.692 2.002,5.655c0.082,0.237 0.161,0.465 0.226,0.657c0.439,1.229 0.867,2.459 1.285,3.688c1.272,0.884 2.561,1.743 3.875,2.565c13.219,8.266 29.781,12.51 44.643,7.808l0.013,-0.004c10.693,-3.379 20.118,-9.814 30.144,-14.83c17.535,-8.775 37.224,-14.547 56.661,-12.043l0.011,0.001c11.356,1.467 22.295,5.694 31.765,12.077c2.123,0.757 4.111,1.575 5.952,2.431l12.556,7.885c0.033,0.027 0.065,0.054 0.098,0.082c4.132,3.501 7.655,7.347 10.725,11.487c3.841,5.171 6.896,10.813 9.238,16.657c7.248,17.973 6.94,37.303 5.902,44.992c-0.005,0.033 -0.009,0.067 -0.014,0.1c-1.653,11.974 -5.209,23.025 -10.103,33.077c-17.79,36.599 -54.272,59.565 -67.352,67.486c0,-0 -0.171,0.103 -0.248,0.15c4.853,0.228 9.441,3.02 11.735,7.684c7.669,15.591 12.903,36.012 4.838,53.172l-0.004,0.008c-2.013,4.277 -4.268,7.297 -6.663,10.05c-1.845,2.121 -3.934,3.864 -5.725,7.215c-3.237,6.055 -4.181,15.729 1.471,31.735c1.256,3.556 0.963,7.285 -0.526,10.451c4.183,-0.174 8.432,-0.263 12.737,-0.263c5.577,-0 11.062,0.161 16.434,0.469c-0.365,-0.66 -0.68,-1.358 -0.94,-2.092c-9.596,-27.158 -5.284,-43.628 0.202,-53.902l0.006,-0.012c2.198,-4.107 4.506,-7.001 6.827,-9.614c1.7,-1.914 3.535,-3.427 4.925,-6.385c4.482,-9.533 -0.367,-20.627 -4.622,-29.285c-3.355,-6.827 -0.537,-15.092 6.289,-18.447c6.826,-3.355 15.092,-0.537 18.447,6.289c7.662,15.591 12.9,36.004 4.83,53.17c-2.012,4.279 -4.266,7.301 -6.662,10.055c-1.845,2.122 -3.935,3.866 -5.729,7.216c-3.231,6.057 -4.179,15.73 1.475,31.732c1.689,4.782 0.578,9.879 -2.476,13.496Zm-119.422,340.264l-0.041,-0.05c-0.053,-0 -0.106,-0 -0.159,-0.001l-0.005,0.051c0.068,0 0.136,0 0.205,0Zm-0,0c7.911,0 15.518,-2.789 21.522,-7.799l-0.051,-0.009c-5.983,4.974 -13.551,7.746 -21.421,7.758l-0.05,0.05Zm59.113,-335.336c-7.504,6.16 -12.292,15.509 -12.292,25.974c-0,0.709 0.022,1.413 0.065,2.111l0.006,-0.001c-0.043,-0.698 -0.065,-1.401 -0.065,-2.11c0,-10.466 4.784,-19.814 12.286,-25.974Zm-59.311,335.265c0.069,0.008 0.12,0.013 0.154,0.017c-0.031,-0.038 -0.077,-0.095 -0.139,-0.171l-0.015,0.154Zm12.431,-334.465c6.655,-1.851 13.757,-3.434 21.251,-4.683c3.377,-0.562 6.84,-1.067 10.379,-1.51c-0.675,-0.979 -1.233,-2.062 -1.647,-3.236c-9.59,-27.159 -5.282,-43.63 0.211,-53.905c2.196,-4.109 4.504,-7.004 6.825,-9.619c1.7,-1.916 3.537,-3.43 4.931,-6.389c4.474,-9.528 -0.369,-20.623 -4.627,-29.278c-2.047,-4.162 -1.799,-8.861 0.254,-12.655c-42.647,22.522 -91.856,33.609 -130.127,30.953c-1.332,3.136 -2.715,6.245 -4.147,9.328c-8.228,17.757 -18.083,34.615 -29.377,50.368c-1.803,2.538 -3.644,5.046 -5.522,7.525c14.02,13.353 22.771,32.2 22.771,53.097c-0,13.164 -3.476,25.534 -9.563,36.229c4.189,9.227 6.524,19.489 6.524,30.314c0,13.991 -3.936,27.11 -10.751,38.265l0.053,0.419c0.01,0.08 0.02,0.161 0.029,0.242c0.376,3.194 0.7,6.442 0.973,9.608c0.784,8.061 1.36,16.157 1.716,24.256l0.002,0.06c0.198,4.708 0.315,9.383 0.355,14.021c0.186,13.495 -0.381,26.773 -1.541,39.734c-0.247,2.885 -0.523,5.754 -0.826,8.606l20.475,-1.871c5.847,-17.672 21.783,-35.61 48.652,-48.283c-3.472,-13.053 -6.445,-26.887 -9.89,-41.504c-10.241,-43.463 -4.139,-82.026 -4.139,-82.026l-0.391,5.109l1.343,-11.297l3.633,-10.132l11.08,-15.439c1.746,-1.76 3.728,-3.509 5.934,-5.231l-42.339,0l-0,-106.905l87.496,0l-0,85.829Z" style="fill:#fff;stroke:#fff;stroke-width:83.33px;stroke-miterlimit:2;"/><path d="M890.342,1081.87c6.567,29.25 10.148,60.291 10.148,91.332c0,22.684 -1.791,44.771 -5.372,66.261c-10.745,69.246 -38.802,132.522 -78.797,185.65c51.934,-19.699 109.838,-52.531 159.981,-108.047l0.597,0c9.551,-10.745 80.588,-90.736 104.466,-208.931c5.969,-29.25 9.551,-61.485 7.76,-94.914c-0.597,-10.745 -1.194,-21.49 -2.388,-31.638c-0.597,-4.776 -1.194,-9.551 -1.791,-13.73c-7.163,6.566 -16.714,10.745 -27.459,10.745c-17.908,-0 -33.429,-11.939 -38.205,-28.653c-4.775,-3.582 -17.311,-10.745 -34.026,-11.342c-20.296,-0.597 -34.622,8.357 -39.398,11.342c-4.775,16.714 -20.296,28.653 -38.204,28.653c-22.087,-0 -39.996,-17.908 -39.996,-39.995c0,-12.536 5.97,-23.281 14.924,-31.042c-8.954,-7.163 -14.924,-18.505 -14.924,-31.041c0,-4.775 1.194,-10.148 2.985,-14.326l-152.818,-34.026c85.96,58.5 149.236,148.639 172.517,253.702Z" style="fill:url(#_Linear7);fill-rule:nonzero;"/><path d="M1089.23,1013c-0.464,-10.572 -1.335,-21.138 -2.575,-31.614c-0.549,-4.6 -1.194,-9.15 -1.884,-13.746c-7.125,6.712 -16.724,10.844 -27.346,10.844c-18.014,-0 -33.221,-11.987 -38.093,-28.489c-5.054,-3.447 -17.137,-10.572 -34.098,-11.212c-20.034,-0.781 -34.42,7.997 -39.247,11.262l-0.318,-0.096c-4.827,16.502 -20.085,28.535 -38.098,28.535c-21.964,-0 -39.746,-17.782 -39.746,-39.746c-0,-12.547 5.789,-23.713 14.839,-30.974c-9.05,-7.306 -14.839,-18.472 -14.839,-31.019c-0,-5.195 1.007,-10.158 2.846,-14.703l-153.074,-33.871c86.255,58.592 149.401,148.66 172.882,253.714c6.616,29.457 10.108,60.108 10.108,91.586c-0,22.473 -1.794,44.487 -5.24,65.988c-10.935,68.981 -38.784,132.304 -79.175,185.655c52.106,-19.807 109.785,-52.615 160.38,-107.76c0.136,-0.136 0.272,-0.322 0.459,-0.504c9.649,-10.617 80.414,-90.482 104.545,-208.773c5.971,-29.457 9.095,-61.302 7.674,-95.077Z" style="fill:none;fill-rule:nonzero;stroke:#231f20;stroke-width:32.15px;"/><path d="M1230.95,1152.01c0,-0.736 -0.045,-1.472 -0.136,-2.202c-0.045,-2.207 -0.231,-4.46 -0.413,-6.667l0,-0.05c-0.186,-2.338 -0.458,-4.681 -0.735,-6.979c-0.232,-1.612 -0.464,-3.22 -0.696,-4.782c-0.413,-2.756 -0.912,-5.512 -1.511,-8.223c-0,-0.141 -0,-0.323 -0.091,-0.459c-0.277,-1.521 -0.6,-2.988 -0.963,-4.459c0,-0.136 -0.05,-0.277 -0.095,-0.368c-11.902,-5.008 -21.319,-10.848 -27.437,-17.278l-116.169,10.617c-24.126,118.281 -94.896,198.151 -104.546,208.768c22.836,10.657 48.297,16.633 75.179,16.633c98.156,0 177.75,-79.593 177.75,-177.749c-0,-2.252 -0.041,-4.55 -0.137,-6.802Z" style="fill:none;fill-rule:nonzero;stroke:#231f20;stroke-width:32.15px;"/><path d="M723.526,120.659c28.999,-14.154 64.245,-1.975 78.354,26.978l53.764,110.335c1.149,2.388 2.156,4.872 2.942,7.397l-35.659,17.373l-67.374,32.808l-80.052,-171.501l48.025,-23.39Z" style="fill:none;fill-rule:nonzero;stroke:#231f20;stroke-width:32.15px;"/><path d="M755.555,315.551l-80.051,-171.501l48.025,-23.39c28.993,-14.154 64.245,-1.975 78.348,26.973l53.764,110.34c1.154,2.388 2.162,4.872 2.943,7.397l-35.66,17.368l-67.369,32.813Z" style="fill:none;fill-rule:nonzero;stroke:#231f20;stroke-width:32.15px;"/><path d="M1231.09,1158.81c0,98.156 -79.593,177.749 -177.749,177.749c-26.882,0 -52.343,-5.97 -75.179,-16.628c9.649,-10.621 80.419,-90.487 104.545,-208.773l116.165,-10.611c6.117,6.429 15.535,12.264 27.441,17.273c0.046,0.095 0.091,0.231 0.091,0.368c0.368,1.471 0.69,2.937 0.967,4.459c0.086,0.141 0.086,0.322 0.086,0.458c0.6,2.711 1.104,5.468 1.517,8.229c0.232,1.557 0.463,3.169 0.695,4.777c0.272,2.297 0.549,4.64 0.731,6.983l-0,0.051c0.181,2.202 0.373,4.454 0.413,6.661c0.096,0.731 0.141,1.471 0.141,2.202c0.091,2.257 0.136,4.555 0.136,6.802" style="fill:#231f20;fill-rule:nonzero;"/><path d="M1231.09,1158.81c0,98.156 -79.593,177.749 -177.749,177.749c-26.882,0 -52.343,-5.97 -75.179,-16.628c9.649,-10.621 80.419,-90.487 104.545,-208.773l116.165,-10.611c6.117,6.429 15.535,12.264 27.441,17.273c0.046,0.095 0.091,0.231 0.091,0.368c0.368,1.471 0.69,2.937 0.967,4.459c0.086,0.141 0.086,0.322 0.086,0.458c0.6,2.711 1.104,5.468 1.517,8.229c0.232,1.557 0.463,3.169 0.695,4.777c0.272,2.297 0.549,4.64 0.731,6.983l-0,0.051c0.181,2.202 0.373,4.454 0.413,6.661c0.096,0.731 0.141,1.471 0.141,2.202c0.091,2.257 0.136,4.555 0.136,6.802Z" style="fill:none;fill-rule:nonzero;stroke:#231f20;stroke-width:32.15px;"/><path d="M1081.55,1108.08l-0.045,-0" style="fill:none;fill-rule:nonzero;stroke:#f15a29;stroke-width:1.61px;stroke-linejoin:miter;"/><path d="M1310.82,867.37c-56.198,0 -101.738,17.006 -101.738,38.003c-0,14.567 22.009,27.204 54.313,33.548c14.154,2.852 30.288,4.409 47.425,4.409c53.26,0 96.917,-15.257 101.376,-34.697c0.232,-1.053 0.363,-2.157 0.363,-3.26c-0,-20.997 -45.536,-38.003 -101.739,-38.003Z" style="fill:none;fill-rule:nonzero;stroke:#231f20;stroke-width:32.15px;"/><path d="M1209.1,905.351c-0,14.585 21.953,27.195 54.313,33.575c14.129,2.811 30.233,4.406 47.4,4.406c53.25,0 96.928,-15.268 101.409,-34.714c0.228,-1.064 0.304,-2.127 0.304,-3.267c0,-20.965 -45.501,-37.981 -101.713,-37.981c-56.212,0 -101.713,17.016 -101.713,37.981Z" style="fill:url(#_Linear8);fill-rule:nonzero;"/><path d="M1412.56,905.373c0,1.103 -0.131,2.207 -0.363,3.26c-4.459,19.44 -48.115,34.697 -101.375,34.697c-17.142,0 -33.272,-1.557 -47.431,-4.409c-32.303,-6.344 -54.313,-18.981 -54.313,-33.548c-0,-20.997 45.541,-38.003 101.744,-38.003c56.203,0 101.738,17.006 101.738,38.003Z" style="fill:none;fill-rule:nonzero;stroke:#231f20;stroke-width:32.15px;"/><path d="M1378.32,1068.79c-8.975,2.992 -19.397,5.404 -30.785,6.948c-11.387,1.641 -23.836,2.606 -36.671,2.606c-24.802,-0 -47.48,-3.281 -65.14,-8.782c-5.598,-7.913 -10.037,-16.309 -13.704,-25.091c-6.852,1.737 -13.317,3.764 -19.204,6.08c-25.091,9.457 -40.532,22.485 -40.532,36.864c0,6.273 2.895,12.16 8.203,17.757c6.08,6.369 15.537,12.256 27.407,17.274c25.863,10.809 63.5,17.66 105.479,17.66c77.878,0 141.088,-23.547 141.088,-52.691c0,-15.151 -17.177,-28.758 -44.681,-38.312c-5.597,-2.123 -11.773,-3.86 -18.239,-5.5c-3.378,8.685 -7.624,16.984 -13.221,25.187Z" style="fill:url(#_Linear9);fill-rule:nonzero;"/><path d="M1454.42,1087.44c0,29.089 -63.136,52.66 -141.031,52.66c-41.953,0 -79.638,-6.842 -105.467,-17.691c-11.902,-5.008 -21.32,-10.843 -27.432,-17.278c-5.331,-5.512 -8.178,-11.488 -8.178,-17.691c0,-14.426 15.434,-27.432 40.533,-36.899c5.88,-2.298 12.309,-4.324 19.202,-6.113c3.679,8.823 8.093,17.183 13.696,25.134c17.646,5.467 40.351,8.778 65.071,8.778c12.915,-0 25.32,-0.917 36.718,-2.57c11.352,-1.613 21.783,-4.001 30.747,-6.989c5.648,-8.223 9.881,-16.497 13.277,-25.179c6.48,1.607 12.592,3.401 18.246,5.467c27.481,9.554 44.618,23.204 44.618,38.371Z" style="fill:none;fill-rule:nonzero;stroke:#231f20;stroke-width:32.15px;"/><path d="M1413.34,920.95c-0.459,-7.719 -1.149,-12.314 -1.149,-12.314c-4.454,19.439 -48.111,34.692 -101.376,34.692c-17.137,-0 -33.266,-1.557 -47.425,-4.409c-32.304,-6.339 -54.313,-18.981 -54.313,-33.549c-0,0 -5.009,32.536 3.632,69.213c3.855,16.356 7.075,31.705 11.161,46.04c2.344,8.274 5.014,16.225 8.178,23.808c3.679,8.823 8.093,17.183 13.696,25.134c17.646,5.467 40.351,8.778 65.071,8.778c12.915,-0 25.325,-0.917 36.718,-2.57c11.352,-1.613 21.788,-4.001 30.747,-6.989c5.648,-8.223 9.881,-16.497 13.282,-25.179c2.847,-7.17 5.094,-14.617 7.12,-22.382c0.826,-3.124 1.607,-6.339 2.343,-9.604c2.484,-10.526 4.731,-21.692 7.583,-33.775c5.377,-22.841 5.422,-44.115 4.732,-56.894" style="fill:#231f20;fill-rule:nonzero;"/><path d="M1413.34,920.95c-0.459,-7.719 -1.149,-12.314 -1.149,-12.314c-4.454,19.439 -48.111,34.692 -101.376,34.692c-17.137,-0 -33.266,-1.557 -47.425,-4.409c-32.304,-6.339 -54.313,-18.981 -54.313,-33.549c-0,0 -5.009,32.536 3.632,69.213c3.855,16.356 7.075,31.705 11.161,46.04c2.344,8.274 5.014,16.225 8.178,23.808c3.679,8.823 8.093,17.183 13.696,25.134c17.646,5.467 40.351,8.778 65.071,8.778c12.915,-0 25.325,-0.917 36.718,-2.57c11.352,-1.613 21.788,-4.001 30.747,-6.989c5.648,-8.223 9.881,-16.497 13.282,-25.179c2.847,-7.17 5.094,-14.617 7.12,-22.382c0.826,-3.124 1.607,-6.339 2.343,-9.604c2.484,-10.526 4.731,-21.692 7.583,-33.775c5.377,-22.841 5.422,-44.115 4.732,-56.894Z" style="fill:none;fill-rule:nonzero;stroke:#231f20;stroke-width:32.15px;"/><path d="M1387.52,988.735c-1.789,7.538 -3.22,14.522 -4.732,21.138c-0.458,2.025 -0.967,4.046 -1.471,6.021c-1.285,4.827 -2.716,9.508 -4.459,14.018c-2.162,5.422 -4.777,10.612 -8.319,15.762c-6.158,2.02 -13.373,3.633 -21.274,4.64l-0,-84.601c23.249,-2.988 40.3,-10.849 42.502,-20.357c0,-0 0.413,2.892 0.691,7.719c0.463,7.997 0.418,21.32 -2.938,35.66" style="fill:#465d77;fill-rule:nonzero;"/><path d="M1387.52,988.735c-1.789,7.538 -3.22,14.522 -4.732,21.138c-0.458,2.025 -0.967,4.046 -1.471,6.021c-1.285,4.827 -2.716,9.508 -4.459,14.018c-2.162,5.422 -4.777,10.612 -8.319,15.762c-6.158,2.02 -13.373,3.633 -21.274,4.64l-0,-84.601c23.249,-2.988 40.3,-10.849 42.502,-20.357c0,-0 0.413,2.892 0.691,7.719c0.463,7.997 0.418,21.32 -2.938,35.66Z" style="fill:none;fill-rule:nonzero;stroke:#231f20;stroke-width:18.39px;"/><path d="M1378.28,1068.79c-0.184,0.277 -0.365,0.55 -0.549,0.827" style="fill:none;fill-rule:nonzero;stroke:#231f20;stroke-width:32.15px;"/><path d="M1476.36,975.783c0,27.25 -23.163,49.304 -51.743,49.304c-9.282,0 -17.969,-2.343 -25.507,-6.384c2.484,-10.521 4.732,-21.692 7.584,-33.78c5.376,-22.836 5.421,-44.11 4.731,-56.888c4.228,-1.058 8.642,-1.607 13.192,-1.607c28.58,-0 51.743,22.105 51.743,49.355Z" style="fill:none;fill-rule:nonzero;stroke:#231f20;stroke-width:32.15px;"/><path d="M1019.42,950.043c-0.045,-0.001 -0.042,-0.05 -0.094,-0.049" style="fill:none;fill-rule:nonzero;stroke:#f15a29;stroke-width:1.61px;stroke-linejoin:miter;"/><path d="M1017.06,1054.09c0,11.337 -9.186,20.523 -20.523,20.523c-11.332,-0 -20.523,-9.186 -20.523,-20.523c-0,-11.337 9.191,-20.523 20.523,-20.523c11.337,-0 20.523,9.186 20.523,20.523" style="fill:#231f20;fill-rule:nonzero;"/><path d="M1017.06,1054.09c0,-11.327 -9.196,-20.523 -20.523,-20.523c-11.327,-0 -20.523,9.196 -20.523,20.523c-0,11.327 9.196,20.523 20.523,20.523c11.327,-0 20.523,-9.196 20.523,-20.523Z" style="fill:none;stroke:#231f20;stroke-width:9.17px;"/><path d="M1012.46,1135.51c0,11.343 -9.186,20.529 -20.523,20.529c-11.332,-0 -20.518,-9.186 -20.518,-20.529c0,-11.332 9.186,-20.523 20.518,-20.523c11.337,0 20.523,9.191 20.523,20.523" style="fill:#231f20;fill-rule:nonzero;"/><path d="M1012.46,1135.51c0,-11.329 -9.196,-20.528 -20.523,-20.528c-11.327,0 -20.523,9.199 -20.523,20.528c-0,11.33 9.196,20.529 20.523,20.529c11.327,-0 20.523,-9.199 20.523,-20.529Z" style="fill:none;stroke:#231f20;stroke-width:9.17px;"/><path d="M900.587,1173.47c0,22.473 -1.793,44.487 -5.24,65.993c-10.939,68.976 -38.784,132.304 -79.18,185.65c-61.851,23.531 -115.897,28.726 -140.94,31.115c-149.26,14.29 -261.62,-43.102 -303.941,-65.485c-74.726,-39.564 -121.229,-85.614 -130.465,-94.896c-57.579,-58.037 -121.41,-154.545 -150.041,-264.099c-23.713,-90.25 -23.481,-189.328 23.758,-282.939c2.807,-5.558 5.744,-10.985 8.732,-16.316c21.461,47.29 56.294,87.222 99.628,114.981c41.635,26.701 91.127,42.139 144.251,42.139c93.056,0 175.043,-47.47 223.017,-119.57c149.628,39.519 266.352,160.057 300.309,311.841c6.621,29.457 10.112,60.108 10.112,91.586" style="fill:#231f20;fill-rule:nonzero;"/><path d="M900.587,1173.47c0,22.473 -1.793,44.487 -5.24,65.993c-10.939,68.976 -38.784,132.304 -79.18,185.65c-61.851,23.531 -115.897,28.726 -140.94,31.115c-149.26,14.29 -261.62,-43.102 -303.941,-65.485c-74.726,-39.564 -121.229,-85.614 -130.465,-94.896c-57.579,-58.037 -121.41,-154.545 -150.041,-264.099c-23.713,-90.25 -23.481,-189.328 23.758,-282.939c2.807,-5.558 5.744,-10.985 8.732,-16.316c21.461,47.29 56.294,87.222 99.628,114.981c41.635,26.701 91.127,42.139 144.251,42.139c93.056,0 175.043,-47.47 223.017,-119.57c149.628,39.519 266.352,160.057 300.309,311.841c6.621,29.457 10.112,60.108 10.112,91.586Z" style="fill:none;fill-rule:nonzero;stroke:#231f20;stroke-width:32.15px;"/><path d="M573.203,882.021c6.737,26.262 19.188,50.493 38.129,67.812c4.797,4.57 9.251,7.901 15.071,11.599c5.709,3.668 12.038,7.281 18.225,10.788c12.466,6.964 25.038,13.469 38.013,19.173c12.955,5.85 26.323,10.597 40.895,16.845c7.256,3.144 14.784,6.898 21.879,11.478c7.054,4.59 13.67,9.7 19.827,15.232c12.184,11.192 22.529,24.01 30.939,37.988c8.379,13.993 14.859,29.17 18.709,45.294c7.881,32.546 2.696,67.439 -10.813,96.297c-6.561,14.622 -14.935,28.151 -24.413,40.562c-9.458,12.441 -19.894,23.949 -31.155,34.571c-5.699,5.316 -11.418,10.38 -17.697,15.122c-6.046,4.963 -12.587,9.266 -19.082,13.579c-13.171,8.39 -27.355,15.076 -42.003,20.04c-29.306,9.83 -60.632,12.904 -90.336,7.608c14.698,-3.371 28.893,-7.009 42.674,-11.443c13.751,-4.515 27.073,-9.644 39.831,-15.696c12.739,-6.077 24.998,-12.894 36.502,-20.78c5.633,-4.101 11.317,-8.137 16.507,-12.773c5.366,-4.374 10.526,-9.322 15.439,-14.28c19.57,-20.135 36.526,-43.218 46.75,-68.266c5.159,-12.456 8.974,-25.365 9.916,-38.355l0.534,-4.853l-0.06,-4.852c-0.126,-3.225 0.186,-6.475 -0.247,-9.665c-0.927,-6.379 -1.451,-12.778 -3.275,-19.031c-6.883,-25.018 -21.622,-48.856 -41.142,-66.079c-4.908,-4.258 -10.083,-8.097 -15.454,-11.489c-5.402,-3.325 -11.156,-6.157 -17.445,-8.878c-12.602,-5.356 -27.119,-10.491 -41.136,-16.714c-14.104,-6.117 -27.865,-13.111 -41.102,-20.699c-6.641,-3.82 -13.126,-7.563 -19.833,-11.912c-6.651,-4.217 -14.043,-9.826 -19.878,-15.53c-12.164,-11.518 -22.156,-25.138 -29.739,-39.69c-7.634,-14.547 -12.824,-30.032 -16.331,-45.581l31.301,-7.422Z" style="fill:#f6c37e;fill-rule:nonzero;"/><path d="M372.346,939.906c-4.751,5.125 -9.83,11.927 -13.977,18.594c-4.263,6.777 -7.79,13.977 -10.849,21.329c-5.729,14.789 -9.045,30.5 -8.274,46.196c0.499,7.825 1.719,15.64 3.88,23.284c2.242,7.614 5.518,14.94 9.468,21.924c8.022,13.927 19.379,26.061 32.742,35.473l0.02,0.005c3.316,2.278 4.732,6.289 3.875,9.977l-0.136,0.564c-5.437,23.118 -5.799,48.101 -0.085,70.66c5.573,22.704 18.714,42.673 36.889,57.12c9.029,7.271 19.359,13.065 30.404,17.106c10.99,4.188 22.659,6.828 34.541,7.821c11.907,1.083 23.899,0.136 35.957,-1.265c12.143,-1.31 24.297,-3.447 37.796,-5.236c-9.387,9.806 -21.475,16.543 -34.35,20.856c-12.929,4.379 -26.786,5.402 -40.466,5.014c-13.706,-0.454 -27.442,-2.757 -40.638,-7.1c-13.167,-4.404 -25.723,-10.944 -36.93,-19.43c-22.402,-16.839 -39.181,-42.069 -45.233,-69.444c-6.334,-27.321 -4.807,-55.337 3.804,-81.463l3.744,10.536l-0.02,-0.015c-15.57,-10.591 -29.291,-24.171 -39.686,-40.265c-10.506,-16.028 -17.127,-34.702 -19.581,-54.072c-2.363,-19.419 0.338,-39.171 6.037,-57.573c2.988,-9.166 6.767,-18.019 11.075,-26.61c4.455,-8.667 9.161,-16.578 15.636,-24.997l24.357,21.011Z" style="fill:#f6c37e;fill-rule:nonzero;"/><path d="M159.866,853.725c-1.637,30.077 -2.101,60.133 -0.574,90.064c0.267,7.492 0.917,14.95 1.592,22.402c0.454,7.488 1.466,14.89 2.313,22.327c1.834,14.85 4.414,29.578 7.377,44.236c6.238,29.23 14.95,58.002 26.922,85.534c12.123,27.522 26.267,53.875 40.144,82.268c-25.143,-19.253 -44.593,-45.026 -59.302,-72.951c-14.965,-27.88 -26.71,-57.569 -35.08,-88.154c-4.232,-15.283 -7.724,-30.767 -10.36,-46.388c-2.726,-15.6 -4.807,-31.321 -5.965,-47.087c-2.616,-31.523 -2.55,-63.187 -0.026,-94.554l32.959,2.303Z" style="fill:#445d77;fill-rule:nonzero;"/><path d="M849.181,1337.89c-22.276,21.239 -46.734,39.913 -73.022,55.518c-26.338,15.484 -54.49,27.955 -83.886,35.957c-29.361,8.032 -59.952,11.423 -90.094,9.488c-30.162,-1.441 -59.76,-8.727 -87.423,-19.919c28.333,9.398 58.022,14.668 87.589,14.17c29.558,-0 58.879,-5.216 86.572,-14.734c55.452,-19.132 104.535,-54.061 143.833,-96.559l16.431,16.079Z" style="fill:#455d77;fill-rule:nonzero;"/><path d="M1097.18,938.735c-0,11.352 -4.777,21.647 -12.406,28.902c-7.125,6.712 -16.724,10.849 -27.346,10.849c-18.013,0 -33.22,-11.992 -38.093,-28.494c-5.054,-3.442 -17.142,-10.567 -34.098,-11.207c-20.034,-0.786 -34.42,7.997 -39.247,11.257l-0.317,-0.091c-4.828,16.497 -20.085,28.535 -38.099,28.535c-21.964,0 -39.751,-17.787 -39.751,-39.751c0,-12.547 5.795,-23.713 14.844,-30.969c-9.049,-7.311 -14.844,-18.477 -14.844,-31.024c0,-21.918 17.787,-39.746 39.751,-39.746c21.924,0 39.706,17.828 39.706,39.746c5.009,3.402 17.137,10.572 34.188,11.262c20.04,0.781 34.42,-7.996 39.248,-11.262l0.226,-0.045c-0.136,-1.471 -0.226,-2.988 -0.226,-4.505c-0,-19.434 13.922,-35.609 32.394,-39.061c2.394,-0.458 4.827,-0.685 7.357,-0.685c21.914,0 39.751,17.782 39.751,39.746c0,14.573 -7.861,27.346 -19.581,34.284c10.017,7.171 16.543,18.931 16.543,32.259" style="fill:#231f20;fill-rule:nonzero;"/><path d="M1097.18,938.735c-0,11.352 -4.777,21.647 -12.406,28.902c-7.125,6.712 -16.724,10.849 -27.346,10.849c-18.013,0 -33.22,-11.992 -38.093,-28.494c-5.054,-3.442 -17.142,-10.567 -34.098,-11.207c-20.034,-0.786 -34.42,7.997 -39.247,11.257l-0.317,-0.091c-4.828,16.497 -20.085,28.535 -38.099,28.535c-21.964,0 -39.751,-17.787 -39.751,-39.751c0,-12.547 5.795,-23.713 14.844,-30.969c-9.049,-7.311 -14.844,-18.477 -14.844,-31.024c0,-21.918 17.787,-39.746 39.751,-39.746c21.924,0 39.706,17.828 39.706,39.746c5.009,3.402 17.137,10.572 34.188,11.262c20.04,0.781 34.42,-7.996 39.248,-11.262l0.226,-0.045c-0.136,-1.471 -0.226,-2.988 -0.226,-4.505c-0,-19.434 13.922,-35.609 32.394,-39.061c2.394,-0.458 4.827,-0.685 7.357,-0.685c21.914,0 39.751,17.782 39.751,39.746c0,14.573 -7.861,27.346 -19.581,34.284c10.017,7.171 16.543,18.931 16.543,32.259Z" style="fill:none;fill-rule:nonzero;stroke:#231f20;stroke-width:32.15px;"/><path d="M906.472,869.988l-35.8,-7.952" style="fill:none;fill-rule:nonzero;stroke:#231f20;stroke-width:1.16px;"/><path d="M717.598,828.169l-29.919,-6.612" style="fill:none;fill-rule:nonzero;stroke:#231f20;stroke-width:1.16px;"/><path d="M931.972,313.391l-89.379,-183.448c-23.481,-48.161 -82.077,-68.382 -130.283,-44.896l-183.448,89.379c-48.161,23.435 -68.382,82.072 -44.896,130.233l89.378,183.448c1.976,4.046 4.183,7.86 6.621,11.493l58.592,-28.585l239.006,-116.447l59.327,-28.907c-1.336,-4.137 -2.988,-8.274 -4.918,-12.27Z" style="fill:#231f20;fill-rule:nonzero;stroke:#231f20;stroke-width:32.15px;"/><path d="M858.584,265.37l-35.66,17.368l-67.369,32.813l-80.051,-171.501l48.02,-23.39c28.998,-14.154 64.244,-1.975 78.353,26.973l53.764,110.34c1.154,2.388 2.162,4.872 2.943,7.397Z" style="fill:#445d77;fill-rule:nonzero;stroke:#231f20;stroke-width:32.15px;"/><path d="M608.913,458.437l278.622,-134.045l-20.353,-42.305l-278.622,134.044l20.353,42.306Z" style="fill:url(#_Linear10);"/><path d="M867.177,282.049l-278.632,134.064l20.51,42.627l278.632,-134.064l-20.51,-42.627Z" style="fill:none;stroke:#231f20;stroke-width:9.17px;"/><path d="M1339.29,827.554c-7.624,-21.577 -4.993,-34.657 -0.635,-42.82c3.991,-7.458 8.627,-9.307 12.073,-16.638c6.273,-13.343 1.23,-29.11 -4.726,-41.228" style="fill:none;fill-rule:nonzero;stroke:#231f20;stroke-width:27.56px;stroke-linecap:round;"/><path d="M1285.6,828.168c-7.618,-21.576 -4.993,-34.657 -0.629,-42.82c3.985,-7.457 8.621,-9.306 12.073,-16.638c6.268,-13.337 1.229,-29.109 -4.732,-41.227" style="fill:none;fill-rule:nonzero;stroke:#231f20;stroke-width:27.56px;stroke-linecap:round;"/><path d="M1214.64,1188.38c-19.233,62.073 -66.628,111.841 -123.406,134.118c53.195,-29.865 89.817,-83.675 98.902,-139.973l24.504,5.855Z" style="fill:#465d77;fill-rule:nonzero;"/><path d="M1056.75,537.245c8.515,-7.185 20.684,-8.914 31.598,-6.666c10.919,2.252 20.775,8.037 29.82,14.537c9.05,6.505 17.53,13.821 26.973,19.732c21.43,13.403 48.498,18.981 72.594,11.357c12.375,-3.91 23.45,-11.015 35.055,-16.819c11.609,-5.81 24.468,-10.426 37.337,-8.768c12.718,1.643 24.423,9.755 30.425,21.087c6.006,11.328 6.142,25.572 0.362,37.015c-20.538,-8.752 -44.064,-6.842 -65.842,-1.914c-21.772,4.923 -43.847,10.909 -65.343,16.673c-20.75,5.558 -50.222,1.487 -65.313,-16.714c-5.906,-7.119 -11.428,-12.652 -17.832,-19.323c-6.415,-6.672 -13.091,-13.313 -22.297,-14.225c-6.455,-0.64 -12.889,1.24 -19.374,1.446c-21.864,0.706 -21.617,-26.066 -8.163,-37.418" style="fill:#fff;fill-rule:nonzero;"/><path d="M1321.21,630.715c-14.245,29.316 -34.939,46.468 -45.415,52.807c-49.396,29.87 -112.774,43.333 -147.279,28.489c-1.386,-0.595 -2.666,-1.194 -3.956,-1.879c-3.814,-2.026 -16.497,-4.828 -25.179,-3.911c-22.292,2.253 -20.357,22.015 -41.963,25.552c-15.253,2.479 -30.374,-8.868 -35.105,-22.745c4.368,-8.732 9.009,-18.109 10.248,-30.792c0.827,-8.269 6.113,-29.044 6.843,-36.531c1.703,-16.729 3.406,-14.754 -0.73,-41.591c-0.645,-4.182 -1.421,-9.281 -1.845,-14.748c1.2,-1.794 3.014,-3.155 4.142,-5.054c7.427,-12.572 21.914,-20.211 36.396,-17.893c4.504,0.725 13.347,7.714 23.319,17.878c11.519,11.73 20.327,20.17 29.114,25.577c24.222,14.904 42.85,15.988 56.485,14.128c23.764,-3.245 63.948,-17.222 76.389,-22.508c31.341,-13.307 48.352,-18.744 56.203,2.514c4.308,11.675 1.159,21.476 2.333,30.707" style="fill:#f4c37d;fill-rule:nonzero;"/><path d="M1121,617.142c4.054,6.426 4.487,13.442 0.949,15.672c-3.536,2.233 -9.683,-1.167 -13.743,-7.584c-4.054,-6.426 -4.487,-13.442 -0.951,-15.676c3.538,-2.229 9.683,1.167 13.745,7.588" style="fill:#231f20;fill-rule:nonzero;"/><path d="M1121,617.142c-4.055,-6.419 -10.214,-9.819 -13.745,-7.588c-3.532,2.231 -3.107,9.254 0.948,15.672c4.055,6.419 10.214,9.819 13.746,7.588c3.531,-2.231 3.106,-9.254 -0.949,-15.672Z" style="fill:none;stroke:#231f20;stroke-width:7.71px;"/><path d="M1071.96,690.677c8.889,-5.976 18.594,-9.851 29.059,-11.66c13.318,-2.303 26.041,3.598 38.965,7.543c30.047,9.156 63.258,0.317 92.483,-10.607c29.22,-10.919 55.85,-27.713 81.885,-44.9c-20.341,30.439 -50.146,54.464 -84.213,67.872c-34.068,13.404 -72.252,16.14 -107.886,7.72c-7.206,-1.698 -14.356,-3.855 -21.743,-4.414c-7.382,-0.56 -15.197,0.64 -21.143,5.054c-6.278,4.661 -9.881,12.415 -16.542,16.507c-8.188,5.024 -20.095,2.585 -25.642,-5.256c-2.681,-3.774 -3.326,-4.787 -2.812,-9.352c0.373,-3.345 2.393,-9.301 6.198,-10.506c2.065,-0.655 2.665,-0.085 4.666,0.449c2.751,0.735 6.595,3.512 9.427,3.32c5.87,-0.388 12.204,-8.344 17.298,-11.77" style="fill:#d19656;fill-rule:nonzero;"/><path d="M1337.38,608.418c-1.149,8.319 -3.633,15.993 -7.034,22.977c-14.245,29.316 -44.069,47.103 -54.545,53.447c-49.396,29.87 -112.774,43.334 -147.279,28.489c-1.386,-0.594 -2.666,-1.194 -3.956,-1.884c-3.814,-2.021 -16.497,-4.822 -25.179,-3.905c-22.292,2.252 -20.357,22.014 -41.963,25.551c-15.253,2.48 -30.374,-8.873 -35.105,-22.745c1.194,-2.393 2.983,-7.996 4.963,-15.031c0.509,-1.839 1.058,-3.814 1.607,-5.789c3.084,-11.675 6.344,-25.507 8.501,-35.201c0.141,-0.459 0.231,-0.872 0.282,-1.33c0.181,-0.787 0.317,-1.522 0.453,-2.258c0.182,-0.826 0.323,-1.602 0.459,-2.298c0.141,-0.73 0.232,-1.375 0.368,-2.02l0.141,-0.826c-0,-0.091 0.045,-0.182 0.045,-0.278c0.045,-0.226 0.045,-0.413 0.091,-0.594l-0,-0.141c-0,-0.136 0.045,-0.272 0.045,-0.413c0,-0.091 0.051,-0.137 0.051,-0.227c0.04,-0.368 0.04,-0.645 0.085,-0.922c1.703,-16.724 3.406,-14.749 -0.73,-41.586c-0.323,-1.935 -0.595,-4.091 -0.923,-6.343c-0.045,-0.182 -0.045,-0.368 -0.085,-0.55c-0.096,-0.599 -0.141,-1.194 -0.232,-1.794l-0,-0.322c-0.096,-0.872 -0.232,-1.789 -0.328,-2.711c-0.085,-1.013 -0.181,-2.02 -0.277,-3.033c-0.04,-0.459 -0.085,-0.872 -0.085,-1.331c-0.096,-1.244 -0.136,-2.484 -0.232,-3.723c-0.413,-12.728 1.779,-26.842 10.329,-37.64c11.116,-14.033 26.575,-17.238 39.747,-12.884c4.328,1.431 11.362,3.512 20.649,14.315c10.616,12.405 19.711,21.415 27.708,27.94c23.254,19.022 37.131,17.046 52.111,15.162c25.32,-3.17 68.523,-18.563 82.304,-24.448c24.081,-10.34 45.909,-5.236 53.724,1.335c2.111,1.789 3.9,3.764 5.467,5.88c2.117,2.847 3.769,5.971 5.054,9.191c4.505,11.166 4.414,23.163 3.769,27.94Z" style="fill:none;fill-rule:nonzero;stroke:#231f20;stroke-width:32.15px;"/><path d="M1033.36,271.45l-549.573,262.926c-31.951,15.248 -45.338,53.666 -29.787,86.289c15.248,31.95 53.666,45.338 85.617,30.09l549.269,-263.598c31.951,-15.248 45.339,-53.666 30.091,-85.616c-11.301,-23.215 -34.218,-36.325 -57.957,-36.926c-9.582,0.284 -19.228,2.216 -27.66,6.835Z" style="fill:url(#_Linear11);fill-rule:nonzero;"/><path d="M1088.71,387.335l-548.963,263.233c-32.057,15.373 -70.498,1.844 -85.871,-30.208c-15.369,-32.057 -1.844,-70.503 30.212,-85.871l548.964,-263.233c32.052,-15.368 70.498,-1.844 85.871,30.208c15.368,32.057 1.844,70.503 -30.213,85.871Z" style="fill:none;fill-rule:nonzero;stroke:#231f20;stroke-width:32px;"/><path d="M1029.92,409.864l-441.184,211.549c-13.917,6.677 -30.61,0.801 -37.287,-13.116c-6.671,-13.917 -0.801,-30.611 13.116,-37.287l441.188,-211.549c13.918,-6.672 30.606,-0.802 37.288,13.121c6.671,13.917 0.801,30.605 -13.121,37.282" style="fill:#231f20;fill-rule:nonzero;"/><path d="M997.254,388.207l-169.946,81.974l-31.49,14.995l-49.484,23.993l-128.46,61.98l-25.992,12.496c-1.999,11.497 -3.499,23.493 -3.999,35.989l0,20.494c1,34.489 8.498,66.979 20.994,96.969c-5.498,11.496 -11.996,22.493 -18.494,32.99c3.499,0.999 6.998,1.999 10.496,2.999c2.5,0.5 4.999,1.499 7.498,2.499c1.5,-0 7.998,2.499 9.497,2.999c2.499,0.5 4.998,1.5 7.998,2.499c2.499,1 4.998,2 7.497,2.999c4.999,2 10.497,3.999 15.495,5.998c1,1 6.498,2.999 7.998,3.999c2.499,1 4.998,1.999 7.497,3.499c2.999,1.5 6.498,2.999 9.997,4.998c2.499,1 4.499,2.5 6.998,3.499c1.999,1.5 4.499,2.5 6.498,3.499c10.497,5.998 19.994,11.996 29.991,18.494l152.951,33.99c0.5,-2 1.5,-3.499 2.5,-5.499c0.499,-0.499 0.999,-1.499 1.499,-1.999c0.5,-1 1,-1.5 1.5,-2.499c0.499,-0.5 0.999,-1.5 1.999,-2c2.999,-3.498 6.998,-6.997 11.996,-8.997c0,0 0.5,-0.5 1,-0.5c0.5,-0.499 1.499,-0.499 1.999,-0.999c2.499,-1 5.498,-1.5 8.498,-2c0.999,-0.499 1.999,-0.499 2.499,-0.499l3.499,-0c21.493,-0 39.487,17.994 39.487,39.487c4.999,3.499 16.995,10.997 33.989,11.496l2.5,0c18.994,0 32.489,-7.997 36.988,-11.496l0,-4.498c0,-19.494 13.996,-35.489 32.49,-38.988c25.992,-23.993 46.985,-53.483 61.98,-85.973c5.499,-10.997 9.497,-21.993 13.496,-33.989c-1.5,-0.5 -2.999,-1 -3.999,-1.5c-3.998,-1.999 -16.495,-4.998 -25.492,-3.999c-21.993,2 -19.993,21.993 -41.986,25.492c-14.996,2.5 -29.991,-8.997 -34.989,-22.992c2.499,-4.999 4.998,-9.997 6.997,-15.995c0.5,-0.5 2,-6.498 2.5,-7.998c-0,-1 2.999,-14.995 2.999,-15.495c0.999,-4.998 4.498,-26.492 4.498,-26.492c0,0 3.499,-15.995 -0.5,-42.486c-0.499,-2 -0.499,-4.499 -0.999,-6.498l-0,-0.5c-0,-0.5 -0,-1.5 -0.5,-1.999c-0,-1 -0.5,-4.999 -0.5,-5.999l-0,-4.998c-0.5,-12.996 0.5,-27.991 9.997,-37.488c11.996,-12.496 25.992,-11.497 36.988,-10.497c4.499,0.5 13.496,2 23.493,11.996c11.496,10.997 19.494,20.994 27.491,27.492c-1.999,-10.997 -4.998,-21.993 -8.997,-32.99c-1,-3.499 -2.499,-6.498 -3.499,-9.497c-16.995,-43.486 -44.486,-81.974 -79.475,-111.465c-5.498,-4.498 -10.996,-8.997 -16.995,-12.996c-8.997,-6.498 -18.494,-12.496 -28.491,-17.994Z" style="fill:url(#_Linear12);fill-rule:nonzero;"/><path d="M1124.57,711.447c1.29,0.69 2.575,1.285 3.956,1.884c-3.633,11.579 -7.997,22.841 -13.056,33.73c-15.116,32.626 -36.39,61.851 -62.36,86.073c-18.473,3.447 -32.39,19.621 -32.39,39.061c0,1.517 0.086,3.033 0.227,4.5l-0.227,0.05c-4.646,3.124 -18.019,11.302 -36.718,11.302c-0.831,-0 -1.703,-0 -2.529,-0.045c-17.051,-0.691 -29.18,-7.861 -34.193,-11.257c-0,-21.919 -17.782,-39.751 -39.701,-39.751c-1.058,-0 -2.071,0.045 -3.129,0.136c-0.867,0.045 -1.698,0.141 -2.57,0.277c-2.988,0.413 -5.84,1.194 -8.551,2.252c-0.781,0.277 -1.512,0.595 -2.252,0.917c-0.363,0.141 -0.691,0.323 -1.008,0.509c-4.55,2.207 -8.546,5.236 -11.947,8.959c-0.6,0.645 -1.154,1.336 -1.653,1.975c-0.645,0.827 -1.29,1.658 -1.844,2.53c-0.504,0.69 -0.962,1.426 -1.376,2.202c-1.012,1.703 -1.839,3.446 -2.575,5.286l-153.074,-33.866c-9.603,-6.525 -19.485,-12.688 -29.638,-18.382c-2.161,-1.239 -4.368,-2.439 -6.57,-3.633c-2.298,-1.239 -4.646,-2.479 -6.984,-3.673c-3.401,-1.794 -6.803,-3.492 -10.249,-5.15c-2.434,-1.149 -4.918,-2.297 -7.402,-3.446c-1.33,-0.645 -2.666,-1.24 -3.996,-1.794c-1.33,-0.595 -2.711,-1.189 -4.046,-1.789c-5.054,-2.207 -10.153,-4.273 -15.303,-6.248c-2.57,-1.013 -5.145,-1.975 -7.765,-2.897c-2.57,-0.963 -5.19,-1.885 -7.81,-2.757c-1.607,-0.554 -3.22,-1.103 -4.827,-1.607c-1.471,-0.509 -2.938,-0.967 -4.459,-1.426c-2.616,-0.831 -5.236,-1.658 -7.901,-2.393c-3.447,-1.053 -6.984,-2.016 -10.481,-2.938c6.943,-10.43 13.192,-21.415 18.659,-32.813c-12.547,-30.051 -19.899,-62.773 -20.997,-97.098c-0.141,-3.083 -0.186,-6.157 -0.186,-9.236c-0,-3.769 0.09,-7.538 0.277,-11.261c0.458,-12.27 1.743,-24.308 3.769,-36.073l26.146,-12.592l0.045,-0l128.626,-61.993l49.214,-23.712l0.141,-0.046l31.337,-15.116l170.034,-81.891l0.046,0c9.881,5.467 19.439,11.483 28.534,18.059c5.745,4.092 11.308,8.455 16.684,13.005c35.11,29.548 62.773,67.687 79.684,111.207c1.239,3.169 2.438,6.389 3.542,9.649c3.769,10.803 6.843,21.874 9.236,33.226c-7.996,-6.525 -15.983,-16.578 -27.713,-27.94c-9.997,-9.685 -19.118,-11.025 -23.658,-11.514c-10.878,-1.164 -24.644,-2.363 -36.738,10.088c-9.593,9.886 -10.742,24.907 -10.329,37.64c0.096,1.239 0.141,2.479 0.232,3.723c-0,0.459 0.045,0.872 0.09,1.331c0.091,1.008 0.187,2.02 0.278,3.033c0.09,0.917 0.186,1.839 0.322,2.711l-0,0.322c0.096,0.6 0.136,1.195 0.232,1.789c0.045,0.187 0.045,0.373 0.085,0.555c0.328,2.252 0.605,4.408 0.923,6.343c4.136,26.837 0.594,42.644 0.594,42.735c0,0.136 -3.582,21.399 -4.545,26.408c-0.136,0.645 -3.038,14.769 -3.22,15.731c-0.272,1.426 -1.834,7.08 -2.111,7.815c-1.975,5.971 -4.55,11.212 -7.079,16.22c4.731,13.877 19.852,25.23 35.11,22.745c21.601,-3.537 19.666,-23.299 41.958,-25.546c8.687,-0.922 21.365,1.884 25.179,3.905Z" style="fill:none;fill-rule:nonzero;stroke:#231f20;stroke-width:32.15px;stroke-linecap:round;"/><path d="M767.266,782.028c-64.658,-2.943 -119.39,-44.024 -142.231,-101.24c-7.397,-18.518 -11.488,-38.693 -11.488,-59.831c-0,-10.43 1.012,-20.679 2.897,-30.56l98.433,-47.289c-20.402,26.977 -32.445,60.526 -32.445,96.921c0,61.393 34.33,114.794 84.834,141.999Z" style="fill:#d29658;fill-rule:nonzero;stroke:#d29658;stroke-width:1.16px;"/><path d="M969.148,605.76c0,25.809 -20.916,46.725 -46.72,46.725c-25.814,0 -46.73,-20.916 -46.73,-46.725c0,-25.809 20.916,-46.725 46.73,-46.725c25.804,0 46.72,20.916 46.72,46.725" style="fill:#231f20;fill-rule:nonzero;"/><path d="M969.148,605.76c0,-25.788 -20.937,-46.725 -46.725,-46.725c-25.788,0 -46.725,20.937 -46.725,46.725c0,25.788 20.937,46.725 46.725,46.725c25.788,0 46.725,-20.937 46.725,-46.725Z" style="fill:none;stroke:#231f20;stroke-width:9.17px;"/><path d="M1078.14,481.974c-0.051,-0.05 -0.152,-0.151 -0.202,-0.201c-25.9,-25.346 -56.707,-44.342 -89.968,-55.578c-1.26,-0.706 -5.185,-1.714 -5.185,-1.714l-14.612,-4.635l28.267,-13.454c6.243,3.426 12.597,7.558 18.342,11.69c3.678,2.62 7.104,5.341 10.576,8.062c20.155,15.721 38.169,34.365 52.782,55.83" style="fill:#fff;fill-rule:nonzero;"/><rect x="960.441" y="897.686" width="53.396" height="33.463" style="fill:#465d77;"/><defs><linearGradient id="_Linear1" x1="0" y1="0" x2="1" y2="0" gradientUnits="userSpaceOnUse" gradientTransform="matrix(0,596.945,596.945,0,903.583,828.171)"><stop offset="0" style="stop-color:#fff;stop-opacity:1"/><stop offset="1" style="stop-color:#231f20;stop-opacity:1"/></linearGradient><linearGradient id="_Linear2" x1="0" y1="0" x2="1" y2="0" gradientUnits="userSpaceOnUse" gradientTransform="matrix(0,75.9621,75.9621,0,1310.82,867.37)"><stop offset="0" style="stop-color:#fff;stop-opacity:1"/><stop offset="0.33" style="stop-color:#fff;stop-opacity:1"/><stop offset="0.71" style="stop-color:#fbc480;stop-opacity:1"/><stop offset="1" style="stop-color:#fbc480;stop-opacity:1"/></linearGradient><linearGradient id="_Linear3" x1="0" y1="0" x2="1" y2="0" gradientUnits="userSpaceOnUse" gradientTransform="matrix(0,-96.5038,-96.5038,0,1313.37,1140.11)"><stop offset="0" style="stop-color:#fff;stop-opacity:1"/><stop offset="1" style="stop-color:#231f20;stop-opacity:1"/></linearGradient><linearGradient id="_Linear4" x1="0" y1="0" x2="1" y2="0" gradientUnits="userSpaceOnUse" gradientTransform="matrix(-299.023,0.000598735,0.000598735,299.023,887.625,370.397)"><stop offset="0" style="stop-color:#fff;stop-opacity:1"/><stop offset="0.25" style="stop-color:#fff;stop-opacity:1"/><stop offset="0.95" style="stop-color:#e1a96b;stop-opacity:1"/><stop offset="1" style="stop-color:#e1a96b;stop-opacity:1"/></linearGradient><linearGradient id="_Linear5" x1="0" y1="0" x2="1" y2="0" gradientUnits="userSpaceOnUse" gradientTransform="matrix(671.961,-303.669,-303.669,-671.961,450.419,612.747)"><stop offset="0" style="stop-color:#231f20;stop-opacity:1"/><stop offset="0.17" style="stop-color:#231f20;stop-opacity:1"/><stop offset="1" style="stop-color:#445d77;stop-opacity:1"/></linearGradient><linearGradient id="_Linear6" x1="0" y1="0" x2="1" y2="0" gradientUnits="userSpaceOnUse" gradientTransform="matrix(0,-499.842,-499.842,0,861.295,888.049)"><stop offset="0" style="stop-color:#f6c37f;stop-opacity:1"/><stop offset="0.42" style="stop-color:#f6c37f;stop-opacity:1"/><stop offset="1" style="stop-color:#d29658;stop-opacity:1"/></linearGradient><linearGradient id="_Linear7" x1="0" y1="0" x2="1" y2="0" gradientUnits="userSpaceOnUse" gradientTransform="matrix(0,596.945,596.945,0,903.583,828.171)"><stop offset="0" style="stop-color:#fff;stop-opacity:1"/><stop offset="1" style="stop-color:#231f20;stop-opacity:1"/></linearGradient><linearGradient id="_Linear8" x1="0" y1="0" x2="1" y2="0" gradientUnits="userSpaceOnUse" gradientTransform="matrix(0,75.9621,75.9621,0,1310.82,867.37)"><stop offset="0" style="stop-color:#fff;stop-opacity:1"/><stop offset="0.33" style="stop-color:#fff;stop-opacity:1"/><stop offset="0.71" style="stop-color:#fbc480;stop-opacity:1"/><stop offset="1" style="stop-color:#fbc480;stop-opacity:1"/></linearGradient><linearGradient id="_Linear9" x1="0" y1="0" x2="1" y2="0" gradientUnits="userSpaceOnUse" gradientTransform="matrix(0,-96.5038,-96.5038,0,1313.37,1140.11)"><stop offset="0" style="stop-color:#fff;stop-opacity:1"/><stop offset="1" style="stop-color:#231f20;stop-opacity:1"/></linearGradient><linearGradient id="_Linear10" x1="0" y1="0" x2="1" y2="0" gradientUnits="userSpaceOnUse" gradientTransform="matrix(-299.023,0.000598735,0.000598735,299.023,887.625,370.397)"><stop offset="0" style="stop-color:#fff;stop-opacity:1"/><stop offset="0.25" style="stop-color:#fff;stop-opacity:1"/><stop offset="0.95" style="stop-color:#e1a96b;stop-opacity:1"/><stop offset="1" style="stop-color:#e1a96b;stop-opacity:1"/></linearGradient><linearGradient id="_Linear11" x1="0" y1="0" x2="1" y2="0" gradientUnits="userSpaceOnUse" gradientTransform="matrix(671.961,-303.669,-303.669,-671.961,450.419,612.747)"><stop offset="0" style="stop-color:#231f20;stop-opacity:1"/><stop offset="0.17" style="stop-color:#231f20;stop-opacity:1"/><stop offset="1" style="stop-color:#445d77;stop-opacity:1"/></linearGradient><linearGradient id="_Linear12" x1="0" y1="0" x2="1" y2="0" gradientUnits="userSpaceOnUse" gradientTransform="matrix(0,-499.842,-499.842,0,861.295,888.049)"><stop offset="0" style="stop-color:#f6c37f;stop-opacity:1"/><stop offset="0.42" style="stop-color:#f6c37f;stop-opacity:1"/><stop offset="1" style="stop-color:#d29658;stop-opacity:1"/></linearGradient></defs></svg>